<svg width="2226" height="2236" viewBox="0 0 2226 2236" fill="none" xmlns="http://www.w3.org/2000/svg" xmlns:xlink="http://www.w3.org/1999/xlink">
<circle cx="2220" cy="626.003" r="6" transform="rotate(-180 2220 626.003)" fill="#9C98A6"/>
<path d="M625.522,2222.476L645.522,2234.036L645.522,2210.936L625.522,2222.476ZM1109.518,2182.476L1111.518,2182.476L1109.518,2182.476ZM1594.518,0.516L1149.518,0.517L1149.518,4.517L1594.518,4.516L1594.518,0.516ZM1107.518,42.517L1107.518,2182.476L1111.518,2182.476L1111.518,42.517L1107.518,42.517ZM1069.518,2220.476L643.522,2220.476L643.522,2224.476L1069.518,2224.476L1069.518,2220.476ZM1107.518,2182.476C1107.52,2203.456 1090.506,2220.476 1069.518,2220.476L1069.518,2224.476C1092.714,2224.476 1111.52,2205.676 1111.518,2182.476L1107.518,2182.476ZM1149.518,0.517C1126.322,0.517 1107.518,19.321 1107.518,42.517L1111.518,42.517C1111.518,21.53 1128.532,4.517 1149.518,4.517L1149.518,0.517Z" transform="rotate(-180 1110.02 1112.497)" fill="#9C98A6"/>
</svg>
