<svg width="512" height="1068" viewBox="0 0 512 1068" fill="none" xmlns="http://www.w3.org/2000/svg" xmlns:xlink="http://www.w3.org/1999/xlink">
<path d="M437.905,998.84C437.905,994 441.804,990.095 446.59,990.095C451.359,990.095 455.275,994.002 455.275,998.84C455.275,1001.127 454.404,1003.206 452.98,1004.763C452.954,1004.785 452.93,1004.808 452.905,1004.833C452.852,1004.885 452.802,1004.941 452.756,1004.998C451.181,1006.596 448.997,1007.585 446.59,1007.585C441.804,1007.585 437.905,1003.68 437.905,998.84ZM454.234,1009.012C452.11,1010.626 449.463,1011.585 446.59,1011.585C439.574,1011.585 433.905,1005.868 433.905,998.84C433.905,991.812 439.574,986.095 446.59,986.095C453.585,986.095 459.275,991.809 459.275,998.84C459.275,1001.545 458.435,1004.056 457.001,1006.122L463.272,1012.443C464.049,1013.227 464.044,1014.493 463.26,1015.271C462.476,1016.049 461.21,1016.044 460.432,1015.26L454.234,1009.012Z" clip-rule="evenodd" fill-rule="evenodd" transform="rotate(180 448.878 1000.973)" fill="#9871F5"/>
<line x1="77.986" y1="815.947" x2="62" y2="815.947" stroke="#9871F5" stroke-width="2" stroke-miterlimit="10" stroke-linecap="round" stroke-linejoin="round"/>
<line x1="71.995" y1="810" x2="71.995" y2="825.915" stroke="#9871F5" stroke-width="2" stroke-miterlimit="10" stroke-linecap="round" stroke-linejoin="round"/>
<line x1="277.986" y1="209.947" x2="262" y2="209.947" stroke="#9871F5" stroke-width="2" stroke-miterlimit="10" stroke-linecap="round" stroke-linejoin="round"/>
<line x1="271.995" y1="204" x2="271.995" y2="219.916" stroke="#9871F5" stroke-width="2" stroke-miterlimit="10" stroke-linecap="round" stroke-linejoin="round"/>
<path d="M408.732,29.232L408.739,27.232L408.732,27.232L408.732,29.232ZM416.393,38.948C416.393,43.21 412.957,46.663 408.732,46.663L408.732,50.663C415.192,50.663 420.393,45.393 420.393,38.948L416.393,38.948ZM408.732,46.663C404.52,46.663 401.07,43.224 401.07,38.948L397.07,38.948C397.07,45.417 402.295,50.663 408.732,50.663L408.732,46.663ZM401.07,38.948C401.07,34.686 404.507,31.232 408.732,31.232L408.732,27.232C402.272,27.232 397.07,32.503 397.07,38.948L401.07,38.948ZM408.725,31.232C412.961,31.247 416.393,34.692 416.393,38.948L420.393,38.948C420.393,32.496 415.187,27.255 408.739,27.232L408.725,31.232Z" transform="rotate(180 408.732 38.948)" fill="#9871F5"/>
<path d="M500.285,597.776L500.292,595.776L500.285,595.776L500.285,597.776ZM507.946,607.492C507.946,611.754 504.51,615.207 500.285,615.207L500.285,619.207C506.745,619.207 511.946,613.937 511.946,607.492L507.946,607.492ZM500.285,615.207C496.073,615.207 492.623,611.768 492.623,607.492L488.623,607.492C488.623,613.961 493.848,619.207 500.285,619.207L500.285,615.207ZM492.623,607.492C492.623,603.23 496.06,599.776 500.285,599.776L500.285,595.776C493.825,595.776 488.623,601.047 488.623,607.492L492.623,607.492ZM500.278,599.776C504.514,599.791 507.946,603.236 507.946,607.492L511.946,607.492C511.946,601.04 506.74,595.799 500.292,595.776L500.278,599.776Z" transform="rotate(180 500.285 607.492)" fill="#9871F5"/>
<path d="M165.661,30.949C167.593,30.949 169.16,29.373 169.16,27.43C169.16,25.487 167.593,23.911 165.661,23.911C163.728,23.911 162.162,25.487 162.162,27.43C162.162,29.373 163.728,30.949 165.661,30.949Z" transform="rotate(-360 165.661 27.43)" fill="#9871F5"/>
<path d="M165.661,55.038C167.593,55.038 169.16,53.462 169.16,51.519C169.16,49.576 167.593,48 165.661,48C163.728,48 162.162,49.576 162.162,51.519C162.162,53.462 163.728,55.038 165.661,55.038Z" transform="rotate(-360 165.661 51.519)" fill="#9871F5"/>
<path d="M141.22,30.949C143.152,30.949 144.719,29.373 144.719,27.43C144.719,25.487 143.152,23.911 141.22,23.911C139.287,23.911 137.721,25.487 137.721,27.43C137.721,29.373 139.287,30.949 141.22,30.949Z" transform="rotate(-360 141.22 27.43)" fill="#9871F5"/>
<path d="M141.22,55.038C143.152,55.038 144.719,53.462 144.719,51.519C144.719,49.576 143.152,48 141.22,48C139.287,48 137.721,49.576 137.721,51.519C137.721,53.462 139.287,55.038 141.22,55.038Z" transform="rotate(-360 141.22 51.519)" fill="#9871F5"/>
<path d="M116.8,30.949C118.733,30.949 120.299,29.373 120.299,27.43C120.299,25.487 118.733,23.911 116.8,23.911C114.868,23.911 113.301,25.487 113.301,27.43C113.301,29.373 114.868,30.949 116.8,30.949Z" transform="rotate(-360 116.8 27.43)" fill="#9871F5"/>
<path d="M116.8,55.038C118.733,55.038 120.299,53.462 120.299,51.519C120.299,49.576 118.733,48 116.8,48C114.868,48 113.301,49.576 113.301,51.519C113.301,53.462 114.868,55.038 116.8,55.038Z" transform="rotate(-360 116.8 51.519)" fill="#9871F5"/>
<path d="M92.36,30.949C94.292,30.949 95.859,29.373 95.859,27.43C95.859,25.487 94.292,23.911 92.36,23.911C90.427,23.911 88.861,25.487 88.861,27.43C88.861,29.373 90.427,30.949 92.36,30.949Z" transform="rotate(-360 92.36 27.43)" fill="#9871F5"/>
<path d="M92.36,55.038C94.292,55.038 95.859,53.462 95.859,51.519C95.859,49.576 94.292,48 92.36,48C90.427,48 88.861,49.576 88.861,51.519C88.861,53.462 90.427,55.038 92.36,55.038Z" transform="rotate(-360 92.36 51.519)" fill="#9871F5"/>
<path d="M67.939,30.949C69.871,30.949 71.438,29.373 71.438,27.43C71.438,25.487 69.871,23.911 67.939,23.911C66.006,23.911 64.44,25.487 64.44,27.43C64.44,29.373 66.006,30.949 67.939,30.949Z" transform="rotate(-360 67.939 27.43)" fill="#9871F5"/>
<path d="M67.939,55.038C69.871,55.038 71.438,53.462 71.438,51.519C71.438,49.576 69.871,48 67.939,48C66.006,48 64.44,49.576 64.44,51.519C64.44,53.462 66.006,55.038 67.939,55.038Z" transform="rotate(-360 67.939 51.519)" fill="#9871F5"/>
<path d="M43.499,30.949C45.432,30.949 46.998,29.373 46.998,27.43C46.998,25.487 45.432,23.911 43.499,23.911C41.567,23.911 40,25.487 40,27.43C40,29.373 41.567,30.949 43.499,30.949Z" transform="rotate(-360 43.499 27.43)" fill="#9871F5"/>
<path d="M43.499,55.038C45.432,55.038 46.998,53.462 46.998,51.519C46.998,49.576 45.432,48 43.499,48C41.567,48 40,49.576 40,51.519C40,53.462 41.567,55.038 43.499,55.038Z" transform="rotate(-360 43.499 51.519)" fill="#9871F5"/>
<path d="M165.661,6.389C167.594,6.389 169.16,4.813 169.16,2.87C169.16,0.927 167.594,-0.649 165.661,-0.649C163.729,-0.649 162.162,0.927 162.162,2.87C162.162,4.813 163.729,6.389 165.661,6.389Z" transform="rotate(-360 165.661 2.87)" fill="#9871F5"/>
<path d="M141.22,6.389C143.152,6.389 144.719,4.813 144.719,2.87C144.719,0.927 143.152,-0.649 141.22,-0.649C139.287,-0.649 137.721,0.927 137.721,2.87C137.721,4.813 139.287,6.389 141.22,6.389Z" transform="rotate(-360 141.22 2.87)" fill="#9871F5"/>
<path d="M116.8,6.389C118.732,6.389 120.299,4.813 120.299,2.87C120.299,0.927 118.732,-0.649 116.8,-0.649C114.867,-0.649 113.301,0.927 113.301,2.87C113.301,4.813 114.867,6.389 116.8,6.389Z" transform="rotate(-360 116.8 2.87)" fill="#9871F5"/>
<path d="M92.359,6.389C94.292,6.389 95.858,4.813 95.858,2.87C95.858,0.927 94.292,-0.649 92.359,-0.649C90.427,-0.649 88.86,0.927 88.86,2.87C88.86,4.813 90.427,6.389 92.359,6.389Z" transform="rotate(-360 92.359 2.87)" fill="#9871F5"/>
<path d="M67.939,6.389C69.871,6.389 71.438,4.813 71.438,2.87C71.438,0.927 69.871,-0.649 67.939,-0.649C66.006,-0.649 64.44,0.927 64.44,2.87C64.44,4.813 66.006,6.389 67.939,6.389Z" transform="rotate(-360 67.939 2.87)" fill="#9871F5"/>
<path d="M43.499,6.389C45.432,6.389 46.998,4.813 46.998,2.87C46.998,0.927 45.432,-0.649 43.499,-0.649C41.567,-0.649 40,0.927 40,2.87C40,4.813 41.567,6.389 43.499,6.389Z" transform="rotate(-360 43.499 2.87)" fill="#9871F5"/>
<path d="M423.338,757.17C425.27,757.17 426.837,755.595 426.837,753.651C426.837,751.708 425.27,750.133 423.338,750.133C421.406,750.133 419.839,751.708 419.839,753.651C419.839,755.595 421.406,757.17 423.338,757.17Z" transform="rotate(180 423.338 753.651)" fill="#9871F5"/>
<path d="M423.339,781.593C425.271,781.593 426.838,780.018 426.838,778.075C426.838,776.131 425.271,774.556 423.339,774.556C421.406,774.556 419.84,776.131 419.84,778.075C419.84,780.018 421.406,781.593 423.339,781.593Z" transform="rotate(180 423.339 778.075)" fill="#9871F5"/>
<path d="M423.339,806.03C425.271,806.03 426.838,804.454 426.838,802.511C426.838,800.568 425.271,798.993 423.339,798.993C421.406,798.993 419.84,800.568 419.84,802.511C419.84,804.454 421.406,806.03 423.339,806.03Z" transform="rotate(180 423.339 802.511)" fill="#9871F5"/>
<path d="M398.76,757.17C400.693,757.17 402.259,755.594 402.259,753.651C402.259,751.708 400.693,750.132 398.76,750.132C396.828,750.132 395.261,751.708 395.261,753.651C395.261,755.594 396.828,757.17 398.76,757.17Z" transform="rotate(180 398.76 753.651)" fill="#9871F5"/>
<path d="M398.76,781.593C400.693,781.593 402.259,780.018 402.259,778.075C402.259,776.131 400.693,774.556 398.76,774.556C396.828,774.556 395.261,776.131 395.261,778.075C395.261,780.018 396.828,781.593 398.76,781.593Z" transform="rotate(180 398.76 778.075)" fill="#9871F5"/>
<path d="M398.76,806.03C400.693,806.03 402.259,804.454 402.259,802.511C402.259,800.568 400.693,798.993 398.76,798.993C396.828,798.993 395.261,800.568 395.261,802.511C395.261,804.454 396.828,806.03 398.76,806.03Z" transform="rotate(180 398.76 802.511)" fill="#9871F5"/>
<path d="M502.097,281.018C504.03,281.018 505.596,279.443 505.596,277.5C505.596,275.556 504.03,273.981 502.097,273.981C500.165,273.981 498.598,275.556 498.598,277.5C498.598,279.443 500.165,281.018 502.097,281.018Z" transform="rotate(180 502.097 277.5)" fill="#9871F5"/>
<path d="M502.097,305.439C504.03,305.439 505.596,303.863 505.596,301.92C505.596,299.977 504.03,298.401 502.097,298.401C500.165,298.401 498.598,299.977 498.598,301.92C498.598,303.863 500.165,305.439 502.097,305.439Z" transform="rotate(180 502.097 301.92)" fill="#9871F5"/>
<path d="M502.097,329.878C504.03,329.878 505.596,328.303 505.596,326.359C505.596,324.416 504.03,322.841 502.097,322.841C500.165,322.841 498.598,324.416 498.598,326.359C498.598,328.303 500.165,329.878 502.097,329.878Z" transform="rotate(180 502.097 326.359)" fill="#9871F5"/>
<path d="M477.519,281.018C479.451,281.018 481.018,279.442 481.018,277.499C481.018,275.556 479.451,273.98 477.519,273.98C475.586,273.98 474.02,275.556 474.02,277.499C474.02,279.442 475.586,281.018 477.519,281.018Z" transform="rotate(180 477.519 277.499)" fill="#9871F5"/>
<path d="M477.519,305.439C479.451,305.439 481.018,303.863 481.018,301.92C481.018,299.977 479.451,298.401 477.519,298.401C475.586,298.401 474.02,299.977 474.02,301.92C474.02,303.863 475.586,305.439 477.519,305.439Z" transform="rotate(180 477.519 301.92)" fill="#9871F5"/>
<path d="M477.519,329.879C479.451,329.879 481.018,328.304 481.018,326.36C481.018,324.417 479.451,322.842 477.519,322.842C475.586,322.842 474.02,324.417 474.02,326.36C474.02,328.304 475.586,329.879 477.519,329.879Z" transform="rotate(180 477.519 326.36)" fill="#9871F5"/>
<path d="M150.934,1066.318C152.866,1066.318 154.433,1064.743 154.433,1062.799C154.433,1060.856 152.866,1059.281 150.934,1059.281C149.001,1059.281 147.435,1060.856 147.435,1062.799C147.435,1064.743 149.001,1066.318 150.934,1066.318Z" transform="rotate(180 150.934 1062.799)" fill="#9871F5"/>
<path d="M126.355,1066.318C128.288,1066.318 129.854,1064.743 129.854,1062.8C129.854,1060.857 128.288,1059.281 126.355,1059.281C124.423,1059.281 122.856,1060.857 122.856,1062.8C122.856,1064.743 124.423,1066.318 126.355,1066.318Z" transform="rotate(180 126.355 1062.8)" fill="#9871F5"/>
<path d="M101.795,1066.319C103.728,1066.319 105.294,1064.743 105.294,1062.8C105.294,1060.857 103.728,1059.281 101.795,1059.281C99.863,1059.281 98.296,1060.857 98.296,1062.8C98.296,1064.743 99.863,1066.319 101.795,1066.319Z" transform="rotate(180 101.795 1062.8)" fill="#9871F5"/>
<path d="M77.217,1066.318C79.149,1066.318 80.716,1064.743 80.716,1062.8C80.716,1060.857 79.149,1059.281 77.217,1059.281C75.284,1059.281 73.718,1060.857 73.718,1062.8C73.718,1064.743 75.284,1066.318 77.217,1066.318Z" transform="rotate(180 77.217 1062.8)" fill="#9871F5"/>
<path d="M52.657,1066.319C54.59,1066.319 56.156,1064.743 56.156,1062.8C56.156,1060.857 54.59,1059.281 52.657,1059.281C50.725,1059.281 49.158,1060.857 49.158,1062.8C49.158,1064.743 50.725,1066.319 52.657,1066.319Z" transform="rotate(180 52.657 1062.8)" fill="#9871F5"/>
<path d="M28.079,1066.319C30.011,1066.319 31.578,1064.743 31.578,1062.8C31.578,1060.857 30.011,1059.281 28.079,1059.281C26.146,1059.281 24.58,1060.857 24.58,1062.8C24.58,1064.743 26.146,1066.319 28.079,1066.319Z" transform="rotate(180 28.079 1062.8)" fill="#9871F5"/>
<path d="M3.519,1066.319C5.451,1066.319 7.018,1064.743 7.018,1062.8C7.018,1060.857 5.451,1059.281 3.519,1059.281C1.586,1059.281 0.02,1060.857 0.02,1062.8C0.02,1064.743 1.586,1066.319 3.519,1066.319Z" transform="rotate(180 3.519 1062.8)" fill="#9871F5"/>
<path d="M150.934,1041.879C152.866,1041.879 154.433,1040.304 154.433,1038.36C154.433,1036.417 152.866,1034.842 150.934,1034.842C149.001,1034.842 147.435,1036.417 147.435,1038.36C147.435,1040.304 149.001,1041.879 150.934,1041.879Z" transform="rotate(180 150.934 1038.36)" fill="#9871F5"/>
<path d="M126.355,1041.879C128.288,1041.879 129.854,1040.304 129.854,1038.36C129.854,1036.417 128.288,1034.842 126.355,1034.842C124.423,1034.842 122.856,1036.417 122.856,1038.36C122.856,1040.304 124.423,1041.879 126.355,1041.879Z" transform="rotate(180 126.355 1038.36)" fill="#9871F5"/>
<path d="M101.795,1041.879C103.728,1041.879 105.294,1040.304 105.294,1038.36C105.294,1036.417 103.728,1034.842 101.795,1034.842C99.863,1034.842 98.296,1036.417 98.296,1038.36C98.296,1040.304 99.863,1041.879 101.795,1041.879Z" transform="rotate(180 101.795 1038.36)" fill="#9871F5"/>
<path d="M77.217,1041.879C79.149,1041.879 80.716,1040.304 80.716,1038.36C80.716,1036.417 79.149,1034.842 77.217,1034.842C75.284,1034.842 73.718,1036.417 73.718,1038.36C73.718,1040.304 75.284,1041.879 77.217,1041.879Z" transform="rotate(180 77.217 1038.36)" fill="#9871F5"/>
<path d="M52.657,1041.879C54.59,1041.879 56.156,1040.304 56.156,1038.36C56.156,1036.417 54.59,1034.842 52.657,1034.842C50.725,1034.842 49.158,1036.417 49.158,1038.36C49.158,1040.304 50.725,1041.879 52.657,1041.879Z" transform="rotate(180 52.657 1038.36)" fill="#9871F5"/>
<path d="M28.079,1041.879C30.011,1041.879 31.578,1040.304 31.578,1038.36C31.578,1036.417 30.011,1034.842 28.079,1034.842C26.146,1034.842 24.58,1036.417 24.58,1038.36C24.58,1040.304 26.146,1041.879 28.079,1041.879Z" transform="rotate(180 28.079 1038.36)" fill="#9871F5"/>
<path d="M3.519,1041.879C5.451,1041.879 7.018,1040.304 7.018,1038.36C7.018,1036.417 5.451,1034.842 3.519,1034.842C1.586,1034.842 0.02,1036.417 0.02,1038.36C0.02,1040.304 1.586,1041.879 3.519,1041.879Z" transform="rotate(180 3.519 1038.36)" fill="#9871F5"/>
<path d="M150.934,1017.457C152.866,1017.457 154.433,1015.882 154.433,1013.938C154.433,1011.995 152.866,1010.42 150.934,1010.42C149.001,1010.42 147.435,1011.995 147.435,1013.938C147.435,1015.882 149.001,1017.457 150.934,1017.457Z" transform="rotate(180 150.934 1013.938)" fill="#9871F5"/>
<path d="M126.355,1017.457C128.288,1017.457 129.854,1015.882 129.854,1013.938C129.854,1011.995 128.288,1010.42 126.355,1010.42C124.423,1010.42 122.856,1011.995 122.856,1013.938C122.856,1015.882 124.423,1017.457 126.355,1017.457Z" transform="rotate(180 126.355 1013.938)" fill="#9871F5"/>
<path d="M101.795,1017.457C103.728,1017.457 105.294,1015.882 105.294,1013.938C105.294,1011.995 103.728,1010.42 101.795,1010.42C99.863,1010.42 98.296,1011.995 98.296,1013.938C98.296,1015.882 99.863,1017.457 101.795,1017.457Z" transform="rotate(180 101.795 1013.938)" fill="#9871F5"/>
<path d="M77.217,1017.457C79.149,1017.457 80.716,1015.882 80.716,1013.938C80.716,1011.995 79.149,1010.42 77.217,1010.42C75.284,1010.42 73.718,1011.995 73.718,1013.938C73.718,1015.882 75.284,1017.457 77.217,1017.457Z" transform="rotate(180 77.217 1013.938)" fill="#9871F5"/>
<path d="M52.657,1017.457C54.59,1017.457 56.156,1015.882 56.156,1013.938C56.156,1011.995 54.59,1010.42 52.657,1010.42C50.725,1010.42 49.158,1011.995 49.158,1013.938C49.158,1015.882 50.725,1017.457 52.657,1017.457Z" transform="rotate(180 52.657 1013.938)" fill="#9871F5"/>
<path d="M28.079,1017.457C30.011,1017.457 31.578,1015.882 31.578,1013.938C31.578,1011.995 30.011,1010.42 28.079,1010.42C26.146,1010.42 24.58,1011.995 24.58,1013.938C24.58,1015.882 26.146,1017.457 28.079,1017.457Z" transform="rotate(180 28.079 1013.938)" fill="#9871F5"/>
<path d="M3.519,1017.457C5.451,1017.457 7.018,1015.882 7.018,1013.938C7.018,1011.995 5.451,1010.42 3.519,1010.42C1.586,1010.42 0.02,1011.995 0.02,1013.938C0.02,1015.882 1.586,1017.457 3.519,1017.457Z" transform="rotate(180 3.519 1013.938)" fill="#9871F5"/>
<path d="M150.932,993.019C152.864,993.019 154.431,991.443 154.431,989.5C154.431,987.557 152.864,985.981 150.932,985.981C148.999,985.981 147.433,987.557 147.433,989.5C147.433,991.443 148.999,993.019 150.932,993.019Z" transform="rotate(180 150.932 989.5)" fill="#9871F5"/>
<path d="M126.355,993.018C128.288,993.018 129.854,991.442 129.854,989.499C129.854,987.556 128.288,985.98 126.355,985.98C124.423,985.98 122.856,987.556 122.856,989.499C122.856,991.442 124.423,993.018 126.355,993.018Z" transform="rotate(180 126.355 989.499)" fill="#9871F5"/>
<path d="M101.795,993.018C103.728,993.018 105.294,991.442 105.294,989.499C105.294,987.556 103.728,985.98 101.795,985.98C99.863,985.98 98.296,987.556 98.296,989.499C98.296,991.442 99.863,993.018 101.795,993.018Z" transform="rotate(180 101.795 989.499)" fill="#9871F5"/>
<path d="M77.217,993.018C79.149,993.018 80.716,991.442 80.716,989.499C80.716,987.556 79.149,985.98 77.217,985.98C75.284,985.98 73.718,987.556 73.718,989.499C73.718,991.442 75.284,993.018 77.217,993.018Z" transform="rotate(180 77.217 989.499)" fill="#9871F5"/>
<path d="M52.657,993.018C54.59,993.018 56.156,991.442 56.156,989.499C56.156,987.556 54.59,985.98 52.657,985.98C50.725,985.98 49.158,987.556 49.158,989.499C49.158,991.442 50.725,993.018 52.657,993.018Z" transform="rotate(180 52.657 989.499)" fill="#9871F5"/>
<path d="M28.079,993.018C30.011,993.018 31.578,991.442 31.578,989.499C31.578,987.556 30.011,985.98 28.079,985.98C26.146,985.98 24.58,987.556 24.58,989.499C24.58,991.442 26.146,993.018 28.079,993.018Z" transform="rotate(180 28.079 989.499)" fill="#9871F5"/>
<path d="M3.519,993.018C5.451,993.018 7.018,991.442 7.018,989.499C7.018,987.556 5.451,985.98 3.519,985.98C1.586,985.98 0.02,987.556 0.02,989.499C0.02,991.442 1.586,993.018 3.519,993.018Z" transform="rotate(180 3.519 989.499)" fill="#9871F5"/>
</svg>
