<svg width="498" height="472" viewBox="0 0 498 472" fill="none" xmlns="http://www.w3.org/2000/svg" xmlns:xlink="http://www.w3.org/1999/xlink">
<path d="M3.253,224.599C2.473,223.817 1.207,223.815 0.425,224.595C-0.357,225.375 -0.359,226.641 0.421,227.423L4.633,231.647L0.421,235.871C-0.359,236.653 -0.357,237.919 0.425,238.699C1.207,239.479 2.473,239.477 3.253,238.695L7.458,234.479L11.662,238.695C12.442,239.477 13.709,239.479 14.491,238.699C15.273,237.919 15.275,236.653 14.495,235.871L10.282,231.647L14.495,227.423C15.275,226.641 15.273,225.375 14.491,224.595C13.709,223.815 12.442,223.817 11.662,224.599L7.458,228.815L3.253,224.599Z" clip-rule="evenodd" fill-rule="evenodd" transform="rotate(180 7.458 231.647)" fill="#9871F5"/>
<path d="M486.313,205.999L486.32,203.999L486.313,203.999L486.313,205.999ZM493.975,215.687C493.975,219.928 490.544,223.374 486.313,223.374L486.313,227.374C492.768,227.374 497.975,222.122 497.975,215.687L493.975,215.687ZM486.313,223.374C482.095,223.374 478.65,219.941 478.65,215.687L474.65,215.687C474.65,222.146 479.881,227.374 486.313,227.374L486.313,223.374ZM478.65,215.687C478.65,211.445 482.081,207.999 486.313,207.999L486.313,203.999C479.858,203.999 474.65,209.251 474.65,215.687L478.65,215.687ZM486.306,207.999C490.549,208.014 493.975,211.452 493.975,215.687L497.975,215.687C497.975,209.245 492.763,204.022 486.32,203.999L486.306,207.999Z" transform="rotate(180 486.313 215.687)" fill="#9871F5"/>
<path d="M89.687,39.98L89.694,37.98L89.687,37.98L89.687,39.98ZM97.35,49.667C97.35,53.908 93.919,57.354 89.687,57.354L89.687,61.354C96.142,61.354 101.35,56.103 101.35,49.667L97.35,49.667ZM89.687,57.354C85.47,57.354 82.025,53.922 82.025,49.667L78.025,49.667C78.025,56.126 83.256,61.354 89.687,61.354L89.687,57.354ZM82.025,49.667C82.025,45.426 85.456,41.98 89.687,41.98L89.687,37.98C83.232,37.98 78.025,43.232 78.025,49.667L82.025,49.667ZM89.68,41.98C93.923,41.994 97.35,45.432 97.35,49.667L101.35,49.667C101.35,43.225 96.138,38.002 89.694,37.98L89.68,41.98Z" transform="rotate(180 89.687 49.667)" fill="#9871F5"/>
<path d="M151.45,456.558C150.671,455.775 149.404,455.771 148.621,456.55C147.838,457.329 147.835,458.595 148.613,459.379L151.45,456.558ZM159.855,470.683C160.634,471.466 161.9,471.47 162.683,470.691C163.467,469.912 163.47,468.646 162.691,467.863L159.855,470.683ZM148.613,459.379L159.855,470.683L162.691,467.863L151.45,456.558L148.613,459.379Z" transform="rotate(180 155.652 463.621)" fill="#9871F5"/>
<path d="M162.691,459.379C163.47,458.595 163.467,457.329 162.683,456.55C161.9,455.771 160.634,455.775 159.855,456.558L162.691,459.379ZM148.613,467.863C147.835,468.646 147.838,469.912 148.621,470.691C149.404,471.47 150.671,471.466 151.45,470.683L148.613,467.863ZM159.855,456.558L148.613,467.863L151.45,470.683L162.691,459.379L159.855,456.558Z" transform="rotate(180 155.652 463.621)" fill="#9871F5"/>
<path d="M449.147,426.022L449.147,428.022L449.147,426.022ZM457.833,436.736C457.833,441.553 453.939,445.45 449.147,445.45L449.147,449.45C456.158,449.45 461.833,443.753 461.833,436.736L457.833,436.736ZM449.147,445.45C444.354,445.45 440.46,441.553 440.46,436.736L436.46,436.736C436.46,443.753 442.135,449.45 449.147,449.45L449.147,445.45ZM440.46,436.736C440.46,431.919 444.354,428.022 449.147,428.022L449.147,424.022C442.135,424.022 436.46,429.719 436.46,436.736L440.46,436.736ZM449.147,428.022C453.922,428.022 457.833,431.921 457.833,436.736L461.833,436.736C461.833,429.717 456.137,424.022 449.147,424.022L449.147,428.022Z" transform="rotate(180 449.147 436.736)" fill="#9871F5"/>
<path d="M435.616,443.031C434.837,442.248 433.57,442.244 432.787,443.023C432.004,443.802 432.001,445.069 432.78,445.852L435.616,443.031ZM440.318,453.429C441.097,454.212 442.363,454.215 443.146,453.436C443.929,452.657 443.933,451.391 443.154,450.608L440.318,453.429ZM432.78,445.852L440.318,453.429L443.154,450.608L435.616,443.031L432.78,445.852Z" transform="rotate(180 437.967 448.23)" fill="#9871F5"/>
<path d="M33.998,393.053C35.931,393.053 37.497,391.482 37.497,389.545C37.497,387.607 35.931,386.036 33.998,386.036C32.066,386.036 30.499,387.607 30.499,389.545C30.499,391.482 32.066,393.053 33.998,393.053Z" transform="rotate(180 33.998 389.545)" fill="#9871F5"/>
<path d="M33.999,417.479C35.931,417.479 37.498,415.909 37.498,413.971C37.498,412.033 35.931,410.462 33.999,410.462C32.066,410.462 30.5,412.033 30.5,413.971C30.5,415.909 32.066,417.479 33.999,417.479Z" transform="rotate(180 33.999 413.971)" fill="#9871F5"/>
<path d="M33.999,441.919C35.931,441.919 37.498,440.348 37.498,438.41C37.498,436.473 35.931,434.902 33.999,434.902C32.067,434.902 30.5,436.473 30.5,438.41C30.5,440.348 32.067,441.919 33.999,441.919Z" transform="rotate(180 33.999 438.41)" fill="#9871F5"/>
<path d="M9.491,393.052C11.424,393.052 12.99,391.482 12.99,389.544C12.99,387.606 11.424,386.035 9.491,386.035C7.559,386.035 5.992,387.606 5.992,389.544C5.992,391.482 7.559,393.052 9.491,393.052Z" transform="rotate(180 9.491 389.544)" fill="#9871F5"/>
<path d="M9.491,417.479C11.424,417.479 12.99,415.908 12.99,413.971C12.99,412.033 11.424,410.462 9.491,410.462C7.559,410.462 5.992,412.033 5.992,413.971C5.992,415.908 7.559,417.479 9.491,417.479Z" transform="rotate(180 9.491 413.971)" fill="#9871F5"/>
<path d="M9.491,441.919C11.424,441.919 12.99,440.348 12.99,438.41C12.99,436.472 11.424,434.902 9.491,434.902C7.559,434.902 5.992,436.472 5.992,438.41C5.992,440.348 7.559,441.919 9.491,441.919Z" transform="rotate(180 9.491 438.41)" fill="#9871F5"/>
<path d="M427.7,80.316C429.633,80.316 431.199,78.745 431.199,76.807C431.199,74.87 429.633,73.299 427.7,73.299C425.768,73.299 424.201,74.87 424.201,76.807C424.201,78.745 425.768,80.316 427.7,80.316Z" transform="rotate(180 427.7 76.807)" fill="#9871F5"/>
<path d="M403.192,80.317C405.125,80.317 406.692,78.746 406.692,76.809C406.692,74.871 405.125,73.3 403.192,73.3C401.26,73.3 399.693,74.871 399.693,76.809C399.693,78.746 401.26,80.317 403.192,80.317Z" transform="rotate(180 403.192 76.809)" fill="#9871F5"/>
<path d="M378.703,80.317C380.636,80.317 382.202,78.746 382.202,76.809C382.202,74.871 380.636,73.3 378.703,73.3C376.771,73.3 375.204,74.871 375.204,76.809C375.204,78.746 376.771,80.317 378.703,80.317Z" transform="rotate(180 378.703 76.809)" fill="#9871F5"/>
<path d="M354.195,80.317C356.128,80.317 357.694,78.746 357.694,76.809C357.694,74.871 356.128,73.3 354.195,73.3C352.263,73.3 350.696,74.871 350.696,76.809C350.696,78.746 352.263,80.317 354.195,80.317Z" transform="rotate(180 354.195 76.809)" fill="#9871F5"/>
<path d="M329.706,80.317C331.639,80.317 333.205,78.746 333.205,76.809C333.205,74.871 331.639,73.3 329.706,73.3C327.774,73.3 326.207,74.871 326.207,76.809C326.207,78.746 327.774,80.317 329.706,80.317Z" transform="rotate(180 329.706 76.809)" fill="#9871F5"/>
<path d="M305.198,80.317C307.131,80.317 308.698,78.746 308.698,76.809C308.698,74.871 307.131,73.3 305.198,73.3C303.266,73.3 301.699,74.871 301.699,76.809C301.699,78.746 303.266,80.317 305.198,80.317Z" transform="rotate(180 305.199 76.809)" fill="#9871F5"/>
<path d="M280.709,80.317C282.641,80.317 284.208,78.746 284.208,76.809C284.208,74.871 282.641,73.3 280.709,73.3C278.777,73.3 277.21,74.871 277.21,76.809C277.21,78.746 278.777,80.317 280.709,80.317Z" transform="rotate(180 280.709 76.809)" fill="#9871F5"/>
<path d="M427.7,55.875C429.633,55.875 431.199,54.304 431.199,52.366C431.199,50.428 429.633,48.858 427.7,48.858C425.768,48.858 424.201,50.428 424.201,52.366C424.201,54.304 425.768,55.875 427.7,55.875Z" transform="rotate(180 427.7 52.366)" fill="#9871F5"/>
<path d="M403.192,55.875C405.125,55.875 406.691,54.304 406.691,52.366C406.691,50.429 405.125,48.858 403.192,48.858C401.26,48.858 399.693,50.429 399.693,52.366C399.693,54.304 401.26,55.875 403.192,55.875Z" transform="rotate(180 403.192 52.366)" fill="#9871F5"/>
<path d="M378.703,55.875C380.635,55.875 382.202,54.304 382.202,52.366C382.202,50.429 380.635,48.858 378.703,48.858C376.771,48.858 375.204,50.429 375.204,52.366C375.204,54.304 376.771,55.875 378.703,55.875Z" transform="rotate(180 378.703 52.366)" fill="#9871F5"/>
<path d="M354.195,55.875C356.128,55.875 357.694,54.304 357.694,52.366C357.694,50.429 356.128,48.858 354.195,48.858C352.263,48.858 350.696,50.429 350.696,52.366C350.696,54.304 352.263,55.875 354.195,55.875Z" transform="rotate(180 354.195 52.366)" fill="#9871F5"/>
<path d="M329.706,55.875C331.639,55.875 333.205,54.304 333.205,52.366C333.205,50.429 331.639,48.858 329.706,48.858C327.774,48.858 326.207,50.429 326.207,52.366C326.207,54.304 327.774,55.875 329.706,55.875Z" transform="rotate(180 329.706 52.366)" fill="#9871F5"/>
<path d="M305.198,55.875C307.131,55.875 308.698,54.304 308.698,52.366C308.698,50.429 307.131,48.858 305.198,48.858C303.266,48.858 301.699,50.429 301.699,52.366C301.699,54.304 303.266,55.875 305.198,55.875Z" transform="rotate(180 305.199 52.366)" fill="#9871F5"/>
<path d="M280.709,55.875C282.641,55.875 284.208,54.304 284.208,52.366C284.208,50.429 282.641,48.858 280.709,48.858C278.777,48.858 277.21,50.429 277.21,52.366C277.21,54.304 278.777,55.875 280.709,55.875Z" transform="rotate(180 280.709 52.366)" fill="#9871F5"/>
<path d="M427.7,31.45C429.633,31.45 431.199,29.879 431.199,27.941C431.199,26.004 429.633,24.433 427.7,24.433C425.768,24.433 424.201,26.004 424.201,27.941C424.201,29.879 425.768,31.45 427.7,31.45Z" transform="rotate(180 427.7 27.941)" fill="#9871F5"/>
<path d="M403.192,31.45C405.125,31.45 406.691,29.879 406.691,27.941C406.691,26.004 405.125,24.433 403.192,24.433C401.26,24.433 399.693,26.004 399.693,27.941C399.693,29.879 401.26,31.45 403.192,31.45Z" transform="rotate(180 403.192 27.941)" fill="#9871F5"/>
<path d="M378.703,31.45C380.635,31.45 382.202,29.879 382.202,27.941C382.202,26.004 380.635,24.433 378.703,24.433C376.771,24.433 375.204,26.004 375.204,27.941C375.204,29.879 376.771,31.45 378.703,31.45Z" transform="rotate(180 378.703 27.941)" fill="#9871F5"/>
<path d="M354.195,31.45C356.128,31.45 357.694,29.879 357.694,27.941C357.694,26.004 356.128,24.433 354.195,24.433C352.263,24.433 350.696,26.004 350.696,27.941C350.696,29.879 352.263,31.45 354.195,31.45Z" transform="rotate(180 354.195 27.941)" fill="#9871F5"/>
<path d="M329.706,31.45C331.639,31.45 333.205,29.879 333.205,27.941C333.205,26.004 331.639,24.433 329.706,24.433C327.774,24.433 326.207,26.004 326.207,27.941C326.207,29.879 327.774,31.45 329.706,31.45Z" transform="rotate(180 329.706 27.941)" fill="#9871F5"/>
<path d="M305.198,31.45C307.131,31.45 308.698,29.879 308.698,27.941C308.698,26.004 307.131,24.433 305.198,24.433C303.266,24.433 301.699,26.004 301.699,27.941C301.699,29.879 303.266,31.45 305.198,31.45Z" transform="rotate(180 305.199 27.941)" fill="#9871F5"/>
<path d="M280.709,31.45C282.641,31.45 284.208,29.879 284.208,27.941C284.208,26.004 282.641,24.433 280.709,24.433C278.777,24.433 277.21,26.004 277.21,27.941C277.21,29.879 278.777,31.45 280.709,31.45Z" transform="rotate(180 280.709 27.941)" fill="#9871F5"/>
<path d="M427.698,7.008C429.631,7.008 431.197,5.438 431.197,3.5C431.197,1.562 429.631,-0.009 427.698,-0.009C425.766,-0.009 424.199,1.562 424.199,3.5C424.199,5.438 425.766,7.008 427.698,7.008Z" transform="rotate(180 427.698 3.5)" fill="#9871F5"/>
<path d="M403.192,7.008C405.125,7.008 406.691,5.437 406.691,3.499C406.691,1.561 405.125,-0.009 403.192,-0.009C401.26,-0.009 399.693,1.561 399.693,3.499C399.693,5.437 401.26,7.008 403.192,7.008Z" transform="rotate(180 403.192 3.499)" fill="#9871F5"/>
<path d="M378.703,7.008C380.635,7.008 382.202,5.437 382.202,3.499C382.202,1.561 380.635,-0.01 378.703,-0.01C376.771,-0.01 375.204,1.561 375.204,3.499C375.204,5.437 376.771,7.008 378.703,7.008Z" transform="rotate(180 378.703 3.499)" fill="#9871F5"/>
<path d="M354.195,7.008C356.128,7.008 357.694,5.437 357.694,3.499C357.694,1.561 356.128,-0.009 354.195,-0.009C352.263,-0.009 350.696,1.561 350.696,3.499C350.696,5.437 352.263,7.008 354.195,7.008Z" transform="rotate(180 354.195 3.499)" fill="#9871F5"/>
<path d="M329.706,7.008C331.639,7.008 333.205,5.437 333.205,3.499C333.205,1.561 331.639,-0.01 329.706,-0.01C327.774,-0.01 326.207,1.561 326.207,3.499C326.207,5.437 327.774,7.008 329.706,7.008Z" transform="rotate(180 329.706 3.499)" fill="#9871F5"/>
<path d="M305.198,7.008C307.131,7.008 308.698,5.437 308.698,3.499C308.698,1.561 307.131,-0.01 305.198,-0.01C303.266,-0.01 301.699,1.561 301.699,3.499C301.699,5.437 303.266,7.008 305.198,7.008Z" transform="rotate(180 305.199 3.499)" fill="#9871F5"/>
<path d="M280.709,7.008C282.641,7.008 284.208,5.437 284.208,3.499C284.208,1.561 282.641,-0.01 280.709,-0.01C278.777,-0.01 277.21,1.561 277.21,3.499C277.21,5.437 278.777,7.008 280.709,7.008Z" transform="rotate(180 280.709 3.499)" fill="#9871F5"/>
</svg>
