<svg width="112" height="114" viewBox="0 0 112 114" fill="none" xmlns="http://www.w3.org/2000/svg" xmlns:xlink="http://www.w3.org/1999/xlink">
<rect  x="0" y="0.374" width="112" height="112" rx="16" fill="#E33D3D"/>
<path d="M56,43.794L54.864,44.774C55.149,45.104 55.564,45.294 56,45.294C56.436,45.294 56.851,45.104 57.136,44.774L56,43.794ZM63.4,41.874C68.692,41.874 72.5,46.925 72.5,51.894L75.5,51.894C75.5,45.743 70.788,38.874 63.4,38.874L63.4,41.874ZM72.5,51.894C72.5,54.311 71.55,56.707 69.992,59.002C68.435,61.294 66.327,63.4 64.16,65.204C62,67.002 59.823,68.465 58.165,69.477C57.338,69.983 56.646,70.373 56.16,70.632C55.915,70.763 55.729,70.856 55.608,70.914C55.546,70.944 55.513,70.958 55.505,70.962C55.498,70.964 55.517,70.956 55.551,70.945C55.567,70.94 55.605,70.927 55.655,70.915C55.683,70.908 55.819,70.874 56,70.874L56,73.874C56.185,73.874 56.329,73.839 56.366,73.83C56.426,73.815 56.475,73.799 56.505,73.789C56.565,73.769 56.618,73.748 56.655,73.733C56.732,73.701 56.817,73.662 56.902,73.621C57.075,73.538 57.302,73.423 57.571,73.279C58.112,72.991 58.855,72.572 59.73,72.037C61.477,70.969 63.78,69.423 66.08,67.509C68.373,65.6 70.705,63.29 72.473,60.687C74.24,58.086 75.5,55.107 75.5,51.894L72.5,51.894ZM56,70.874C56.181,70.874 56.317,70.908 56.345,70.915C56.395,70.927 56.433,70.94 56.449,70.945C56.483,70.956 56.502,70.964 56.495,70.962C56.487,70.958 56.454,70.944 56.392,70.914C56.271,70.856 56.085,70.763 55.84,70.632C55.354,70.373 54.662,69.983 53.835,69.477C52.177,68.465 50,67.002 47.84,65.204C45.673,63.4 43.565,61.294 42.008,59.002C40.45,56.707 39.5,54.311 39.5,51.894L36.5,51.894C36.5,55.107 37.76,58.086 39.527,60.687C41.295,63.29 43.627,65.6 45.92,67.509C48.22,69.423 50.523,70.969 52.27,72.037C53.145,72.572 53.888,72.991 54.429,73.279C54.698,73.423 54.925,73.538 55.098,73.621C55.183,73.662 55.268,73.701 55.345,73.733C55.382,73.748 55.435,73.769 55.495,73.789C55.525,73.799 55.574,73.815 55.634,73.83C55.671,73.839 55.815,73.874 56,73.874L56,70.874ZM39.5,51.894C39.5,46.925 43.308,41.874 48.6,41.874L48.6,38.874C41.212,38.874 36.5,45.743 36.5,51.894L39.5,51.894ZM48.6,41.874C51.676,41.874 53.673,43.393 54.864,44.774L57.136,42.814C55.566,40.995 52.804,38.874 48.6,38.874L48.6,41.874ZM57.136,44.774C58.327,43.393 60.324,41.874 63.4,41.874L63.4,38.874C59.196,38.874 56.434,40.995 54.864,42.814L57.136,44.774Z" fill="#FFFFFF"/>
<line x1="73.002" y1="39.061" x2="39.06" y2="73.002" stroke="#FFFFFF" stroke-width="1.5" stroke-miterlimit="3.999327"/>
<line x1="75.002" y1="41.061" x2="41.06" y2="75.002" stroke="#E33D3D" stroke-width="1.5" stroke-miterlimit="3.999327"/>
</svg>
