<svg width="750" height="612" viewBox="0 0 750 612" fill="none" xmlns="http://www.w3.org/2000/svg" xmlns:xlink="http://www.w3.org/1999/xlink">
<path d="M586.13,590.557C584.964,589.38 583.065,589.371 581.888,590.537C580.711,591.702 580.701,593.602 581.867,594.779L586.13,590.557ZM593.076,606.096C594.242,607.273 596.141,607.282 597.319,606.117C598.496,604.951 598.505,603.051 597.339,601.874L593.076,606.096ZM581.867,594.779L593.076,606.096L597.339,601.874L586.13,590.557L581.867,594.779Z" transform="rotate(180 589.603 598.327)" fill="#24EF7F"/>
<path d="M596.629,594.075C597.406,593.291 597.4,592.024 596.615,591.247C595.83,590.47 594.564,590.476 593.787,591.261L596.629,594.075ZM582.578,602.578C581.801,603.362 581.807,604.629 582.591,605.406C583.376,606.183 584.643,606.177 585.42,605.392L582.578,602.578ZM593.787,591.261L582.578,602.578L585.42,605.392L596.629,594.075L593.787,591.261Z" transform="rotate(180 589.603 598.327)" fill="#24EF7F"/>
<line x1="134.004" y1="434.417" x2="118" y2="434.417" stroke="#24EF7F" stroke-width="2" stroke-miterlimit="10" stroke-linecap="round" stroke-linejoin="round"/>
<line x1="128.004" y1="428.493" x2="128.004" y2="444.362" stroke="#24EF7F" stroke-width="2" stroke-miterlimit="10" stroke-linecap="round" stroke-linejoin="round"/>
<line x1="458.004" y1="239.924" x2="442" y2="239.924" stroke="#24EF7F" stroke-width="2" stroke-miterlimit="10" stroke-linecap="round" stroke-linejoin="round"/>
<line x1="452.004" y1="234" x2="452.004" y2="249.869" stroke="#24EF7F" stroke-width="2" stroke-miterlimit="10" stroke-linecap="round" stroke-linejoin="round"/>
<path d="M603.726,199.907L603.733,197.907L603.726,197.907L603.726,199.907ZM611.359,209.633C611.359,213.909 607.928,217.359 603.726,217.359L603.726,221.359C610.178,221.359 615.359,216.076 615.359,209.633L611.359,209.633ZM603.726,217.359C599.538,217.359 596.093,213.922 596.093,209.633L592.093,209.633C592.093,216.1 597.297,221.359 603.726,221.359L603.726,217.359ZM596.093,209.633C596.093,205.357 599.524,201.907 603.726,201.907L603.726,197.907C597.274,197.907 592.093,203.189 592.093,209.633L596.093,209.633ZM603.719,201.907C607.932,201.922 611.359,205.364 611.359,209.633L615.359,209.633C615.359,203.183 610.173,197.93 603.733,197.907L603.719,201.907Z" transform="rotate(180 603.726 209.633)" fill="#24EF7F"/>
<path d="M203.241,588.641L203.248,586.641L203.241,586.641L203.241,588.641ZM210.874,598.367C210.874,602.643 207.443,606.093 203.241,606.093L203.241,610.093C209.693,610.093 214.874,604.811 214.874,598.367L210.874,598.367ZM203.241,606.093C199.053,606.093 195.608,602.657 195.608,598.367L191.608,598.367C191.608,604.835 196.812,610.093 203.241,610.093L203.241,606.093ZM195.608,598.367C195.608,594.092 199.039,590.641 203.241,590.641L203.241,586.641C196.789,586.641 191.608,591.924 191.608,598.367L195.608,598.367ZM203.234,590.641C207.448,590.656 210.874,594.098 210.874,598.367L214.874,598.367C214.874,591.917 209.688,586.664 203.248,586.641L203.234,590.641Z" transform="rotate(180 203.241 598.367)" fill="#24EF7F"/>
<path d="M219.417,209.317C221.344,209.317 222.906,207.74 222.906,205.795C222.906,203.849 221.344,202.272 219.417,202.272C217.49,202.272 215.928,203.849 215.928,205.795C215.928,207.74 217.49,209.317 219.417,209.317Z" transform="rotate(180 219.417 205.795)" fill="#24EF7F"/>
<path d="M219.417,233.665C221.344,233.665 222.906,232.088 222.906,230.143C222.906,228.197 221.344,226.62 219.417,226.62C217.49,226.62 215.928,228.197 215.928,230.143C215.928,232.088 217.49,233.665 219.417,233.665Z" transform="rotate(180 219.417 230.143)" fill="#24EF7F"/>
<path d="M219.417,258.035C221.344,258.035 222.906,256.458 222.906,254.513C222.906,252.567 221.344,250.99 219.417,250.99C217.49,250.99 215.928,252.567 215.928,254.513C215.928,256.458 217.49,258.035 219.417,258.035Z" transform="rotate(180 219.417 254.513)" fill="#24EF7F"/>
<path d="M219.417,282.385C221.344,282.385 222.906,280.808 222.906,278.862C222.906,276.917 221.344,275.34 219.417,275.34C217.49,275.34 215.928,276.917 215.928,278.862C215.928,280.808 217.49,282.385 219.417,282.385Z" transform="rotate(180 219.417 278.862)" fill="#24EF7F"/>
<path d="M219.417,306.753C221.344,306.753 222.906,305.176 222.906,303.23C222.906,301.285 221.344,299.708 219.417,299.708C217.49,299.708 215.928,301.285 215.928,303.23C215.928,305.176 217.49,306.753 219.417,306.753Z" transform="rotate(180 219.417 303.23)" fill="#24EF7F"/>
<path d="M194.83,209.317C196.757,209.317 198.319,207.74 198.319,205.795C198.319,203.849 196.757,202.272 194.83,202.272C192.903,202.272 191.341,203.849 191.341,205.795C191.341,207.74 192.903,209.317 194.83,209.317Z" transform="rotate(180 194.83 205.795)" fill="#24EF7F"/>
<path d="M194.83,233.666C196.757,233.666 198.319,232.089 198.319,230.143C198.319,228.198 196.757,226.621 194.83,226.621C192.903,226.621 191.341,228.198 191.341,230.143C191.341,232.089 192.903,233.666 194.83,233.666Z" transform="rotate(180 194.83 230.143)" fill="#24EF7F"/>
<path d="M194.83,258.035C196.757,258.035 198.319,256.458 198.319,254.512C198.319,252.567 196.757,250.99 194.83,250.99C192.903,250.99 191.341,252.567 191.341,254.512C191.341,256.458 192.903,258.035 194.83,258.035Z" transform="rotate(180 194.83 254.512)" fill="#24EF7F"/>
<path d="M194.83,282.384C196.757,282.384 198.319,280.807 198.319,278.862C198.319,276.917 196.757,275.339 194.83,275.339C192.903,275.339 191.341,276.917 191.341,278.862C191.341,280.807 192.903,282.384 194.83,282.384Z" transform="rotate(180 194.83 278.862)" fill="#24EF7F"/>
<path d="M194.83,306.753C196.757,306.753 198.319,305.176 198.319,303.23C198.319,301.285 196.757,299.708 194.83,299.708C192.903,299.708 191.341,301.285 191.341,303.23C191.341,305.176 192.903,306.753 194.83,306.753Z" transform="rotate(180 194.83 303.23)" fill="#24EF7F"/>
<path d="M170.224,209.317C172.151,209.317 173.713,207.74 173.713,205.795C173.713,203.849 172.151,202.272 170.224,202.272C168.297,202.272 166.735,203.849 166.735,205.795C166.735,207.74 168.297,209.317 170.224,209.317Z" transform="rotate(180 170.224 205.795)" fill="#24EF7F"/>
<path d="M170.224,233.666C172.151,233.666 173.713,232.089 173.713,230.143C173.713,228.198 172.151,226.621 170.224,226.621C168.297,226.621 166.736,228.198 166.736,230.143C166.736,232.089 168.297,233.666 170.224,233.666Z" transform="rotate(180 170.224 230.143)" fill="#24EF7F"/>
<path d="M170.224,258.035C172.151,258.035 173.713,256.458 173.713,254.512C173.713,252.567 172.151,250.99 170.224,250.99C168.297,250.99 166.735,252.567 166.735,254.512C166.735,256.458 168.297,258.035 170.224,258.035Z" transform="rotate(180 170.224 254.512)" fill="#24EF7F"/>
<path d="M170.224,282.384C172.151,282.384 173.713,280.807 173.713,278.862C173.713,276.917 172.151,275.339 170.224,275.339C168.297,275.339 166.736,276.917 166.736,278.862C166.736,280.807 168.297,282.384 170.224,282.384Z" transform="rotate(180 170.224 278.862)" fill="#24EF7F"/>
<path d="M170.224,306.753C172.151,306.753 173.713,305.176 173.713,303.23C173.713,301.285 172.151,299.708 170.224,299.708C168.297,299.708 166.735,301.285 166.735,303.23C166.735,305.176 168.297,306.753 170.224,306.753Z" transform="rotate(180 170.224 303.23)" fill="#24EF7F"/>
<path d="M145.638,209.317C147.564,209.317 149.126,207.74 149.126,205.795C149.126,203.849 147.564,202.272 145.638,202.272C143.711,202.272 142.149,203.849 142.149,205.795C142.149,207.74 143.711,209.317 145.638,209.317Z" transform="rotate(180 145.638 205.795)" fill="#24EF7F"/>
<path d="M145.638,233.666C147.564,233.666 149.126,232.089 149.126,230.143C149.126,228.198 147.564,226.621 145.638,226.621C143.711,226.621 142.149,228.198 142.149,230.143C142.149,232.089 143.711,233.666 145.638,233.666Z" transform="rotate(180 145.638 230.143)" fill="#24EF7F"/>
<path d="M145.638,258.035C147.564,258.035 149.126,256.458 149.126,254.512C149.126,252.567 147.564,250.99 145.638,250.99C143.711,250.99 142.149,252.567 142.149,254.512C142.149,256.458 143.711,258.035 145.638,258.035Z" transform="rotate(180 145.638 254.512)" fill="#24EF7F"/>
<path d="M145.638,282.384C147.564,282.384 149.126,280.807 149.126,278.862C149.126,276.917 147.564,275.339 145.638,275.339C143.711,275.339 142.149,276.917 142.149,278.862C142.149,280.807 143.711,282.384 145.638,282.384Z" transform="rotate(180 145.638 278.862)" fill="#24EF7F"/>
<path d="M145.638,306.753C147.564,306.753 149.126,305.176 149.126,303.23C149.126,301.285 147.564,299.708 145.638,299.708C143.711,299.708 142.149,301.285 142.149,303.23C142.149,305.176 143.711,306.753 145.638,306.753Z" transform="rotate(180 145.638 303.23)" fill="#24EF7F"/>
<path d="M630.477,414.929C632.404,414.929 633.966,413.352 633.966,411.406C633.966,409.461 632.404,407.884 630.477,407.884C628.55,407.884 626.988,409.461 626.988,411.406C626.988,413.352 628.55,414.929 630.477,414.929Z" transform="rotate(180 630.477 411.406)" fill="#24EF7F"/>
<path d="M630.477,439.278C632.404,439.278 633.966,437.701 633.966,435.756C633.966,433.81 632.404,432.233 630.477,432.233C628.551,432.233 626.989,433.81 626.989,435.756C626.989,437.701 628.551,439.278 630.477,439.278Z" transform="rotate(180 630.477 435.756)" fill="#24EF7F"/>
<path d="M630.478,463.646C632.404,463.646 633.966,462.069 633.966,460.124C633.966,458.178 632.404,456.601 630.478,456.601C628.551,456.601 626.989,458.178 626.989,460.124C626.989,462.069 628.551,463.646 630.478,463.646Z" transform="rotate(180 630.477 460.124)" fill="#24EF7F"/>
<path d="M605.872,414.928C607.799,414.928 609.361,413.351 609.361,411.406C609.361,409.46 607.799,407.883 605.872,407.883C603.945,407.883 602.383,409.46 602.383,411.406C602.383,413.351 603.945,414.928 605.872,414.928Z" transform="rotate(180 605.872 411.406)" fill="#24EF7F"/>
<path d="M605.872,439.278C607.799,439.278 609.361,437.701 609.361,435.756C609.361,433.81 607.799,432.233 605.872,432.233C603.945,432.233 602.383,433.81 602.383,435.756C602.383,437.701 603.945,439.278 605.872,439.278Z" transform="rotate(180 605.872 435.756)" fill="#24EF7F"/>
<path d="M605.872,463.647C607.799,463.647 609.361,462.07 609.361,460.125C609.361,458.179 607.799,456.602 605.872,456.602C603.945,456.602 602.383,458.179 602.383,460.125C602.383,462.07 603.945,463.647 605.872,463.647Z" transform="rotate(180 605.872 460.125)" fill="#24EF7F"/>
<path d="M291.5,343.5L456.5,343.5L456.5,331.5L291.5,331.5L291.5,343.5ZM456.5,343.5C461.471,343.5 465.5,347.529 465.5,352.5L477.5,352.5C477.5,340.902 468.098,331.5 456.5,331.5L456.5,343.5ZM465.5,352.5L465.5,450L477.5,450L477.5,352.5L465.5,352.5ZM465.5,450C465.5,454.971 461.471,459 456.5,459L456.5,471C468.098,471 477.5,461.598 477.5,450L465.5,450ZM456.5,459L291.5,459L291.5,471L456.5,471L456.5,459ZM291.5,459C286.529,459 282.5,454.971 282.5,450L270.5,450C270.5,461.598 279.902,471 291.5,471L291.5,459ZM282.5,450L282.5,352.5L270.5,352.5L270.5,450L282.5,450ZM282.5,352.5C282.5,347.529 286.529,343.5 291.5,343.5L291.5,331.5C279.902,331.5 270.5,340.902 270.5,352.5L282.5,352.5Z" fill="#FFFFFF"/>
<line x1="368" y1="465" x2="368" y2="495" stroke="#FFFFFF" stroke-width="6" stroke-miterlimit="3.999327" stroke-linecap="round" stroke-linejoin="round"/>
<line x1="368" y1="322.5" x2="368" y2="337.5" stroke="#FFFFFF" stroke-width="6" stroke-miterlimit="3.999327" stroke-linecap="round" stroke-linejoin="round"/>
<path d="M435.731,519.148C436.641,522.335 439.962,524.179 443.148,523.269C446.335,522.359 448.179,519.038 447.269,515.852L435.731,519.148ZM432.269,463.352C431.359,460.165 428.038,458.321 424.852,459.231C421.665,460.141 419.821,463.462 420.731,466.648L432.269,463.352ZM447.269,515.852L432.269,463.352L420.731,466.648L435.731,519.148L447.269,515.852Z" fill="#FFFFFF"/>
<path d="M300.731,515.852C299.821,519.038 301.665,522.359 304.852,523.269C308.038,524.179 311.359,522.335 312.269,519.148L300.731,515.852ZM327.269,466.648C328.179,463.462 326.335,460.141 323.148,459.231C319.962,458.321 316.641,460.165 315.731,463.352L327.269,466.648ZM312.269,519.148L327.269,466.648L315.731,463.352L300.731,515.852L312.269,519.148Z" fill="#FFFFFF"/>
<path d="M156,0L594,0L594,0C589.788,1.205 586.836,4.991 586.69,9.369L586.634,11.124L586.634,11.124C586.634,38.117 564.75,60 537.756,60L212.243,60C185.25,60 163.367,38.117 163.367,11.124L163.367,11.124L163.309,9.369C163.165,4.991 160.212,1.205 156,0L156,0Z" fill="#000000"/>
<g opacity="0.35" style="isolation:isolate">
<rect  x="672" y="38.667" width="44" height="22.667" rx="5.333" fill="#FFFFFF" stroke="#FFFFFF" stroke-width="1" stroke-miterlimit="3.999327"/>
</g>
<g opacity="0.4" style="isolation:isolate">
<path d="M718,46L718,54C719.609,53.323 720.656,51.746 720.656,50C720.656,48.254 719.609,46.678 718,46Z" fill="#FFFFFF"/>
</g>
<rect  x="676" y="42.667" width="36" height="14.667" rx="2.667" fill="#FFFFFF"/>
<path d="M646.661,43.216C651.092,43.216 655.355,44.919 658.567,47.973C658.808,48.208 659.195,48.205 659.433,47.966L661.745,45.633C661.866,45.511 661.933,45.347 661.932,45.176C661.931,45.004 661.862,44.841 661.74,44.721C653.31,36.642 640.01,36.642 631.58,44.721C631.458,44.841 631.389,45.004 631.387,45.175C631.386,45.347 631.453,45.511 631.574,45.633L633.887,47.966C634.125,48.206 634.512,48.209 634.753,47.973C637.966,44.919 642.228,43.216 646.661,43.216ZM646.661,50.807C649.096,50.807 651.444,51.712 653.249,53.347C653.493,53.579 653.877,53.574 654.115,53.335L656.425,51.002C656.546,50.88 656.614,50.714 656.612,50.541C656.61,50.369 656.539,50.204 656.415,50.084C650.919,44.971 642.407,44.971 636.911,50.084C636.787,50.204 636.716,50.369 636.714,50.541C636.712,50.714 636.78,50.88 636.902,51.002L639.211,53.335C639.449,53.574 639.833,53.579 640.077,53.347C641.881,51.713 644.227,50.808 646.661,50.807ZM651.287,55.915C651.29,56.088 651.222,56.255 651.099,56.376L647.104,60.407C646.987,60.526 646.827,60.593 646.661,60.593C646.494,60.593 646.334,60.526 646.217,60.407L642.222,56.376C642.099,56.255 642.031,56.088 642.034,55.915C642.038,55.742 642.113,55.578 642.241,55.462C644.792,53.304 648.529,53.304 651.08,55.462C651.208,55.578 651.283,55.742 651.287,55.915Z" clip-rule="evenodd" fill-rule="evenodd" fill="#FFFFFF"/>
<path d="M619.333,39.333L617.333,39.333C616.229,39.333 615.333,40.229 615.333,41.333L615.333,58.667C615.333,59.771 616.229,60.667 617.333,60.667L619.333,60.667C620.438,60.667 621.333,59.771 621.333,58.667L621.333,41.333C621.333,40.229 620.438,39.333 619.333,39.333ZM608,44L610,44C611.104,44 612,44.895 612,46L612,58.667C612,59.771 611.104,60.667 610,60.667L608,60.667C606.895,60.667 606,59.771 606,58.667L606,46C606,44.895 606.895,44 608,44ZM600.667,48.667L598.667,48.667C597.562,48.667 596.667,49.562 596.667,50.667L596.667,58.667C596.667,59.771 597.562,60.667 598.667,60.667L600.667,60.667C601.771,60.667 602.667,59.771 602.667,58.667L602.667,50.667C602.667,49.562 601.771,48.667 600.667,48.667ZM591.333,52.667L589.333,52.667C588.229,52.667 587.333,53.562 587.333,54.667L587.333,58.667C587.333,59.771 588.229,60.667 589.333,60.667L591.333,60.667C592.438,60.667 593.333,59.771 593.333,58.667L593.333,54.667C593.333,53.562 592.438,52.667 591.333,52.667Z" clip-rule="evenodd" fill-rule="evenodd" fill="#FFFFFF"/>
<path d="M74.641,60.513C80.017,60.513 83.211,56.309 83.211,49.189C83.211,46.509 82.698,44.253 81.717,42.51C80.296,39.8 77.849,38.335 74.759,38.335C70.159,38.335 66.907,41.426 66.907,45.762C66.907,49.834 69.837,52.793 73.865,52.793C76.341,52.793 78.347,51.636 79.344,49.629L79.387,49.629C79.387,49.629 79.446,49.629 79.461,49.629C79.49,49.629 79.593,49.629 79.593,49.629C79.593,54.463 77.761,57.349 74.671,57.349C72.854,57.349 71.448,56.353 70.965,54.756L67.2,54.756C67.83,58.228 70.774,60.513 74.641,60.513ZM74.773,49.79C72.342,49.79 70.613,48.062 70.613,45.645C70.613,43.286 72.429,41.484 74.788,41.484C77.146,41.484 78.963,43.315 78.963,45.703C78.963,48.062 77.19,49.79 74.773,49.79Z" fill="#FFFFFF"/>
<path d="M89.393,60.308C90.785,60.308 91.737,59.312 91.737,57.993C91.737,56.66 90.785,55.679 89.393,55.679C88.016,55.679 87.049,56.66 87.049,57.993C87.049,59.312 88.016,60.308 89.393,60.308ZM89.393,49.321C90.785,49.321 91.737,48.34 91.737,47.021C91.737,45.688 90.785,44.707 89.393,44.707C88.016,44.707 87.049,45.688 87.049,47.021C87.049,48.34 88.016,49.321 89.393,49.321Z" fill="#FFFFFF"/>
<path d="M105.448,60L109.066,60L109.066,56.06L111.923,56.06L111.923,52.866L109.066,52.866L109.066,38.862L103.734,38.862C99.999,44.487 97.025,49.189 95.121,52.69L95.121,56.06L105.448,56.06L105.448,60ZM98.622,52.734C101.083,48.398 103.28,44.927 105.302,41.938L105.507,41.938L105.507,52.954L98.622,52.954L98.622,52.734Z" fill="#FFFFFF"/>
<path d="M119.98,60L123.759,60L123.759,38.862L119.995,38.862L114.472,42.73L114.472,46.362L119.731,42.671L119.98,42.671L119.98,60Z" fill="#FFFFFF"/>
</svg>
