<svg width="2224" height="2232" viewBox="0 0 2224 2232" fill="none" xmlns="http://www.w3.org/2000/svg" xmlns:xlink="http://www.w3.org/1999/xlink">
<circle cx="2218" cy="1190" r="6" transform="rotate(-180 2218 1190)" fill="#9C98A6"/>
<path d="M1028.021,2218.976L1048.021,2230.516L1048.021,2207.436L1028.021,2218.976ZM1190.018,2178.976L1188.018,2178.976L1190.018,2178.976ZM1030.016,3.016L1150.017,3.016L1150.017,-0.984L1030.016,-0.984L1030.016,3.016ZM1188.017,41.016L1188.018,2178.976L1192.018,2178.976L1192.017,41.016L1188.017,41.016ZM1150.018,2216.976L1046.021,2216.976L1046.021,2220.976L1150.018,2220.976L1150.018,2216.976ZM1188.018,2178.976C1188.018,2199.956 1171.005,2216.976 1150.018,2216.976L1150.018,2220.976C1173.214,2220.976 1192.018,2202.176 1192.018,2178.976L1188.018,2178.976ZM1150.017,3.016C1171.004,3.016 1188.017,20.029 1188.017,41.016L1192.017,41.016C1192.017,17.82 1173.213,-0.984 1150.017,-0.984L1150.017,3.016Z" transform="rotate(-180 1109.019 1109.997)" fill="#9C98A6"/>
<circle cx="1267.961" cy="1190" r="6" transform="rotate(-180 1267.961 1190)" fill="#9C98A6"/>
<path d="M552.982,1743.978L572.982,1755.524L572.982,1732.43L552.982,1743.978ZM714.979,1703.978L712.979,1703.978L714.979,1703.978ZM554.977,478.016L674.978,478.016L674.978,474.016L554.977,474.016L554.977,478.016ZM712.978,516.016L712.979,1703.978L716.979,1703.978L716.978,516.016L712.978,516.016ZM674.979,1741.978L570.982,1741.978L570.982,1745.978L674.979,1745.978L674.979,1741.978ZM712.979,1703.978C712.979,1724.964 695.966,1741.978 674.979,1741.978L674.979,1745.978C698.175,1745.978 716.979,1727.174 716.979,1703.978L712.979,1703.978ZM674.978,478.016C695.965,478.016 712.978,495.029 712.978,516.016L716.978,516.016C716.978,492.82 698.174,474.016 674.978,474.016L674.978,478.016Z" transform="rotate(-180 633.981 1109.996)" fill="#9C98A6"/>
</svg>
