<svg width="80" height="80" viewBox="0 0 80 80" fill="none" xmlns="http://www.w3.org/2000/svg" xmlns:xlink="http://www.w3.org/1999/xlink">
<path d="M12.5,15.5L67.5,15.5L67.5,9.5L12.5,9.5L12.5,15.5ZM67.5,15.5C68.605,15.5 69.5,16.395 69.5,17.5L75.5,17.5C75.5,13.082 71.918,9.5 67.5,9.5L67.5,15.5ZM69.5,17.5L69.5,50L75.5,50L75.5,17.5L69.5,17.5ZM69.5,50C69.5,51.105 68.605,52 67.5,52L67.5,58C71.918,58 75.5,54.418 75.5,50L69.5,50ZM67.5,52L12.5,52L12.5,58L67.5,58L67.5,52ZM12.5,52C11.395,52 10.5,51.105 10.5,50L4.5,50C4.5,54.418 8.082,58 12.5,58L12.5,52ZM10.5,50L10.5,17.5L4.5,17.5L4.5,50L10.5,50ZM10.5,17.5C10.5,16.395 11.395,15.5 12.5,15.5L12.5,9.5C8.082,9.5 4.5,13.082 4.5,17.5L10.5,17.5Z" fill="#FFFFFF"/>
<line x1="37" y1="55" x2="37" y2="65" stroke="#FFFFFF" stroke-width="3" stroke-miterlimit="3.999327" stroke-linecap="round" stroke-linejoin="round"/>
<line x1="37" y1="7.5" x2="37" y2="12.5" stroke="#FFFFFF" stroke-width="3" stroke-miterlimit="3.999327" stroke-linecap="round" stroke-linejoin="round"/>
<path d="M59.615,73.324C60.071,74.917 61.731,75.84 63.324,75.385C64.917,74.929 65.84,73.269 65.385,71.676L59.615,73.324ZM60.385,54.176C59.929,52.583 58.269,51.66 56.676,52.115C55.083,52.571 54.16,54.231 54.615,55.824L60.385,54.176ZM65.385,71.676L60.385,54.176L54.615,55.824L59.615,73.324L65.385,71.676Z" fill="#FFFFFF"/>
<path d="M14.615,71.676C14.16,73.269 15.083,74.929 16.676,75.385C18.269,75.84 19.929,74.917 20.385,73.324L14.615,71.676ZM25.385,55.824C25.84,54.231 24.917,52.571 23.324,52.115C21.731,51.66 20.071,52.583 19.615,54.176L25.385,55.824ZM20.385,73.324L25.385,55.824L19.615,54.176L14.615,71.676L20.385,73.324Z" fill="#FFFFFF"/>
</svg>
