<svg width="104" height="22" viewBox="0 0 104 22" fill="none" xmlns="http://www.w3.org/2000/svg" xmlns:xlink="http://www.w3.org/1999/xlink">
<line x1="0" y1="11.5" x2="96" y2="11.5" stroke="#9C98A6" stroke-width="1.5" stroke-miterlimit="3.999327" stroke-linecap="round" stroke-linejoin="round"/>
<path d="M102.062,6.06C102.647,5.474 102.647,4.524 102.062,3.938C101.476,3.353 100.526,3.353 99.94,3.938L102.062,6.06ZM90.999,15.001L89.938,16.062C90.22,16.343 90.601,16.501 90.999,16.501C91.397,16.501 91.778,16.343 92.06,16.062L90.999,15.001ZM82.058,3.938C81.472,3.353 80.522,3.353 79.936,3.938C79.351,4.524 79.351,5.474 79.936,6.06L82.058,3.938ZM99.94,3.938L89.938,13.94L92.06,16.062L102.062,6.06L99.94,3.938ZM92.06,13.94L82.058,3.938L79.936,6.06L89.938,16.062L92.06,13.94Z" transform="rotate(-180 90.999 10)" fill="#9C98A6"/>
</svg>
