<svg width="36" height="38" viewBox="0 0 36 38" fill="none" xmlns="http://www.w3.org/2000/svg" xmlns:xlink="http://www.w3.org/1999/xlink">
<path d="M21.586,19.586C20.805,20.367 20.805,21.633 21.586,22.414C22.367,23.195 23.633,23.195 24.414,22.414L21.586,19.586ZM33.414,10.586L34.828,12L34.828,12L33.414,10.586ZM2.586,10.586L4,9.172L3.996,9.168L2.586,10.586ZM11.586,22.414C12.367,23.195 13.633,23.195 14.414,22.414C15.195,21.633 15.195,20.367 14.414,19.586L11.586,22.414ZM24.414,22.414L34.828,12L32,9.172L21.586,19.586L24.414,22.414ZM34.828,12C35.579,11.249 36,10.232 36,9.172L32,9.172L32,9.172L34.828,12ZM36,9.172L36,4L32,4L32,9.172L36,9.172ZM36,4C36,1.791 34.209,0 32,0L32,4L36,4ZM32,0L4,0L4,4L32,4L32,0ZM4,0C1.791,0 0,1.791 0,4L4,4L4,0ZM0,4L0,9.172L4,9.172L4,4L0,4ZM0,9.172C0,10.229 0.419,11.251 1.176,12.004L3.996,9.168C4.001,9.173 4,9.175 4,9.172L0,9.172ZM1.172,12L11.586,22.414L14.414,19.586L4,9.172L1.172,12Z" fill="#04D361"/>
<path d="M15,21C15,19.895 14.105,19 13,19C11.895,19 11,19.895 11,21L15,21ZM16.106,35.924L16.59,37.864L16.591,37.864L16.106,35.924ZM25,21C25,19.895 24.105,19 23,19C21.895,19 21,19.895 21,21L25,21ZM11,21L11,33.498L15,33.498L15,21L11,21ZM11,33.498C11,36.424 13.75,38.574 16.59,37.864L15.622,33.984C15.306,34.062 15,33.824 15,33.498L11,33.498ZM16.591,37.864L21.591,36.614L20.621,32.734L15.621,33.984L16.591,37.864ZM21.591,36.614C23.593,36.114 25,34.314 25,32.248L21,32.248C21,32.478 20.843,32.678 20.621,32.734L21.591,36.614ZM25,32.248L25,21L21,21L21,32.248L25,32.248Z" fill="#04D361"/>
</svg>
