<svg width="750" height="1624" viewBox="0 0 750 1624" fill="none" xmlns="http://www.w3.org/2000/svg" xmlns:xlink="http://www.w3.org/1999/xlink">
<g opacity="0.24">
<rect  x="240" y="1598" width="270" height="10" rx="200" fill="#FFFFFF"/>
</g>
<path d="M156,0L594,0L594,0C589.788,1.205 586.836,4.991 586.69,9.369L586.634,11.124L586.634,11.124C586.634,38.117 564.75,60 537.756,60L212.243,60C185.25,60 163.367,38.117 163.367,11.124L163.367,11.124L163.309,9.369C163.165,4.991 160.212,1.205 156,0L156,0Z" fill="#000000"/>
<g opacity="0.35" style="isolation:isolate">
<rect  x="672" y="38.667" width="44" height="22.667" rx="5.333" fill="#FFFFFF" stroke="#FFFFFF" stroke-width="1" stroke-miterlimit="3.999327"/>
</g>
<g opacity="0.4" style="isolation:isolate">
<path d="M718,46L718,54C719.609,53.323 720.656,51.746 720.656,50C720.656,48.254 719.609,46.678 718,46Z" fill="#FFFFFF"/>
</g>
<rect  x="676" y="42.667" width="36" height="14.667" rx="2.667" fill="#FFFFFF"/>
<path d="M646.661,43.216C651.092,43.216 655.355,44.919 658.567,47.973C658.808,48.208 659.195,48.205 659.433,47.966L661.745,45.633C661.866,45.511 661.933,45.347 661.932,45.176C661.931,45.004 661.862,44.841 661.74,44.721C653.31,36.642 640.01,36.642 631.58,44.721C631.458,44.841 631.389,45.004 631.387,45.175C631.386,45.347 631.453,45.511 631.574,45.633L633.887,47.966C634.125,48.206 634.512,48.209 634.753,47.973C637.966,44.919 642.228,43.216 646.661,43.216ZM646.661,50.807C649.096,50.807 651.444,51.712 653.249,53.347C653.493,53.579 653.877,53.574 654.115,53.335L656.425,51.002C656.546,50.88 656.614,50.714 656.612,50.541C656.61,50.369 656.539,50.204 656.415,50.084C650.919,44.971 642.407,44.971 636.911,50.084C636.787,50.204 636.716,50.369 636.714,50.541C636.712,50.714 636.78,50.88 636.902,51.002L639.211,53.335C639.449,53.574 639.833,53.579 640.077,53.347C641.881,51.713 644.227,50.808 646.661,50.807ZM651.287,55.915C651.29,56.088 651.222,56.255 651.099,56.376L647.104,60.407C646.987,60.526 646.827,60.593 646.661,60.593C646.494,60.593 646.334,60.526 646.217,60.407L642.222,56.376C642.099,56.255 642.031,56.088 642.034,55.915C642.038,55.742 642.113,55.578 642.241,55.462C644.792,53.304 648.529,53.304 651.08,55.462C651.208,55.578 651.283,55.742 651.287,55.915Z" clip-rule="evenodd" fill-rule="evenodd" fill="#FFFFFF"/>
<path d="M619.333,39.333L617.333,39.333C616.229,39.333 615.333,40.229 615.333,41.333L615.333,58.667C615.333,59.771 616.229,60.667 617.333,60.667L619.333,60.667C620.438,60.667 621.333,59.771 621.333,58.667L621.333,41.333C621.333,40.229 620.438,39.333 619.333,39.333ZM608,44L610,44C611.105,44 612,44.895 612,46L612,58.667C612,59.771 611.105,60.667 610,60.667L608,60.667C606.895,60.667 606,59.771 606,58.667L606,46C606,44.895 606.895,44 608,44ZM600.667,48.667L598.667,48.667C597.562,48.667 596.667,49.562 596.667,50.667L596.667,58.667C596.667,59.771 597.562,60.667 598.667,60.667L600.667,60.667C601.771,60.667 602.667,59.771 602.667,58.667L602.667,50.667C602.667,49.562 601.771,48.667 600.667,48.667ZM591.333,52.667L589.333,52.667C588.229,52.667 587.333,53.562 587.333,54.667L587.333,58.667C587.333,59.771 588.229,60.667 589.333,60.667L591.333,60.667C592.438,60.667 593.333,59.771 593.333,58.667L593.333,54.667C593.333,53.562 592.438,52.667 591.333,52.667Z" clip-rule="evenodd" fill-rule="evenodd" fill="#FFFFFF"/>
<path d="M74.641,60.513C80.017,60.513 83.211,56.309 83.211,49.189C83.211,46.509 82.698,44.253 81.717,42.51C80.296,39.8 77.849,38.335 74.759,38.335C70.159,38.335 66.907,41.426 66.907,45.762C66.907,49.834 69.837,52.793 73.865,52.793C76.341,52.793 78.347,51.636 79.344,49.629L79.387,49.629C79.387,49.629 79.446,49.629 79.461,49.629C79.49,49.629 79.593,49.629 79.593,49.629C79.593,54.463 77.762,57.349 74.671,57.349C72.854,57.349 71.448,56.353 70.965,54.756L67.2,54.756C67.83,58.228 70.774,60.513 74.641,60.513ZM74.773,49.79C72.342,49.79 70.613,48.062 70.613,45.645C70.613,43.286 72.429,41.484 74.788,41.484C77.146,41.484 78.963,43.315 78.963,45.703C78.963,48.062 77.19,49.79 74.773,49.79Z" fill="#FFFFFF"/>
<path d="M89.393,60.308C90.785,60.308 91.737,59.312 91.737,57.993C91.737,56.66 90.785,55.679 89.393,55.679C88.016,55.679 87.049,56.66 87.049,57.993C87.049,59.312 88.016,60.308 89.393,60.308ZM89.393,49.321C90.785,49.321 91.737,48.34 91.737,47.021C91.737,45.688 90.785,44.707 89.393,44.707C88.016,44.707 87.049,45.688 87.049,47.021C87.049,48.34 88.016,49.321 89.393,49.321Z" fill="#FFFFFF"/>
<path d="M105.448,60L109.066,60L109.066,56.06L111.923,56.06L111.923,52.866L109.066,52.866L109.066,38.862L103.734,38.862C99.999,44.487 97.025,49.189 95.121,52.69L95.121,56.06L105.448,56.06L105.448,60ZM98.622,52.734C101.083,48.398 103.28,44.927 105.302,41.938L105.507,41.938L105.507,52.954L98.622,52.954L98.622,52.734Z" fill="#FFFFFF"/>
<path d="M119.98,60L123.759,60L123.759,38.862L119.995,38.862L114.472,42.73L114.472,46.362L119.731,42.671L119.98,42.671L119.98,60Z" fill="#FFFFFF"/>
<path d="M487.011,1275.94L487.011,1277.94L487.011,1275.94ZM495.696,1286.685C495.696,1291.525 491.797,1295.43 487.011,1295.43L487.011,1299.43C494.027,1299.43 499.696,1293.713 499.696,1286.685L495.696,1286.685ZM487.011,1295.43C482.225,1295.43 478.326,1291.525 478.326,1286.685L474.326,1286.685C474.326,1293.713 479.995,1299.43 487.011,1299.43L487.011,1295.43ZM478.326,1286.685C478.326,1281.845 482.225,1277.94 487.011,1277.94L487.011,1273.94C479.995,1273.94 474.326,1279.657 474.326,1286.685L478.326,1286.685ZM487.011,1277.94C491.781,1277.94 495.696,1281.847 495.696,1286.685L499.696,1286.685C499.696,1279.654 494.007,1273.94 487.011,1273.94L487.011,1277.94Z" transform="rotate(180 487.011 1286.685)" fill="#04D361"/>
<path d="M473.45,1292.97C472.672,1292.186 471.406,1292.181 470.622,1292.959C469.838,1293.737 469.833,1295.003 470.611,1295.787L473.45,1292.97ZM478.148,1303.386C478.926,1304.17 480.193,1304.175 480.977,1303.397C481.761,1302.619 481.766,1301.353 480.988,1300.569L478.148,1303.386ZM470.611,1295.787L478.148,1303.386L480.988,1300.569L473.45,1292.97L470.611,1295.787Z" transform="rotate(180 475.799 1298.178)" fill="#04D361"/>
<path d="M455.954,534.569C455.175,533.786 453.908,533.782 453.125,534.561C452.342,535.34 452.338,536.606 453.117,537.389L455.954,534.569ZM464.359,548.694C465.138,549.477 466.404,549.481 467.187,548.702C467.971,547.923 467.974,546.657 467.195,545.873L464.359,548.694ZM453.117,537.389L464.359,548.694L467.195,545.873L455.954,534.569L453.117,537.389Z" transform="rotate(180 460.156 541.631)" fill="#04D361"/>
<path d="M467.195,537.389C467.974,536.606 467.971,535.34 467.187,534.561C466.404,533.782 465.138,533.786 464.359,534.569L467.195,537.389ZM453.117,545.873C452.338,546.657 452.342,547.923 453.125,548.702C453.908,549.481 455.175,549.477 455.954,548.694L453.117,545.873ZM464.359,534.569L453.117,545.873L455.954,548.694L467.195,537.389L464.359,534.569Z" transform="rotate(180 460.156 541.631)" fill="#04D361"/>
<path d="M245.45,1186.558C244.671,1185.775 243.404,1185.771 242.621,1186.55C241.838,1187.329 241.834,1188.595 242.613,1189.379L245.45,1186.558ZM253.855,1200.683C254.634,1201.466 255.9,1201.47 256.683,1200.691C257.467,1199.912 257.47,1198.646 256.691,1197.863L253.855,1200.683ZM242.613,1189.379L253.855,1200.683L256.691,1197.863L245.45,1186.558L242.613,1189.379Z" transform="rotate(180 249.652 1193.621)" fill="#04D361"/>
<path d="M256.691,1189.379C257.47,1188.595 257.467,1187.329 256.683,1186.55C255.9,1185.771 254.634,1185.775 253.855,1186.558L256.691,1189.379ZM242.613,1197.863C241.834,1198.646 241.838,1199.912 242.621,1200.691C243.404,1201.47 244.671,1201.466 245.45,1200.683L242.613,1197.863ZM253.855,1186.558L242.613,1197.863L245.45,1200.683L256.691,1189.379L253.855,1186.558Z" transform="rotate(180 249.652 1193.621)" fill="#04D361"/>
<line x1="120.878" y1="543.237" x2="104.892" y2="543.237" stroke="#04D361" stroke-width="2" stroke-miterlimit="10" stroke-linecap="round" stroke-linejoin="round"/>
<line x1="114.887" y1="537.29" x2="114.887" y2="553.206" stroke="#04D361" stroke-width="2" stroke-miterlimit="10" stroke-linecap="round" stroke-linejoin="round"/>
<path d="M384.732,311.233L384.739,309.233L384.732,309.233L384.732,311.233ZM392.393,320.948C392.393,325.21 388.957,328.663 384.732,328.663L384.732,332.663C391.192,332.663 396.393,327.393 396.393,320.948L392.393,320.948ZM384.732,328.663C380.52,328.663 377.07,325.224 377.07,320.948L373.07,320.948C373.07,327.417 378.295,332.663 384.732,332.663L384.732,328.663ZM377.07,320.948C377.07,316.686 380.507,313.233 384.732,313.233L384.732,309.233C378.272,309.233 373.07,314.503 373.07,320.948L377.07,320.948ZM384.725,313.233C388.961,313.248 392.393,316.692 392.393,320.948L396.393,320.948C396.393,314.496 391.187,309.255 384.739,309.233L384.725,313.233Z" transform="rotate(180 384.732 320.948)" fill="#04D361"/>
<path d="M636.285,879.777L636.292,877.777L636.285,877.777L636.285,879.777ZM643.946,889.492C643.946,893.754 640.51,897.207 636.285,897.207L636.285,901.207C642.745,901.207 647.946,895.937 647.946,889.492L643.946,889.492ZM636.285,897.207C632.073,897.207 628.623,893.768 628.623,889.492L624.623,889.492C624.623,895.961 629.848,901.207 636.285,901.207L636.285,897.207ZM628.623,889.492C628.623,885.23 632.06,881.777 636.285,881.777L636.285,877.777C629.825,877.777 624.623,883.047 624.623,889.492L628.623,889.492ZM636.278,881.777C640.514,881.791 643.946,885.236 643.946,889.492L647.946,889.492C647.946,883.04 642.74,877.799 636.292,877.777L636.278,881.777Z" transform="rotate(180 636.285 889.492)" fill="#04D361"/>
<path d="M125.715,1021.506L125.722,1019.506L125.715,1019.506L125.715,1021.506ZM133.376,1031.221C133.376,1035.484 129.94,1038.937 125.715,1038.937L125.715,1042.937C132.175,1042.937 137.376,1037.667 137.376,1031.221L133.376,1031.221ZM125.715,1038.937C121.504,1038.937 118.054,1035.497 118.054,1031.221L114.054,1031.221C114.054,1037.69 119.279,1042.937 125.715,1042.937L125.715,1038.937ZM118.054,1031.221C118.054,1026.959 121.49,1023.506 125.715,1023.506L125.715,1019.506C119.255,1019.506 114.054,1024.776 114.054,1031.221L118.054,1031.221ZM125.708,1023.506C129.945,1023.521 133.376,1026.966 133.376,1031.221L137.376,1031.221C137.376,1024.77 132.17,1019.529 125.722,1019.506L125.708,1023.506Z" transform="rotate(180 125.715 1031.221)" fill="#04D361"/>
<path d="M254.219,233.018C256.151,233.018 257.718,231.443 257.718,229.5C257.718,227.556 256.151,225.981 254.219,225.981C252.286,225.981 250.72,227.556 250.72,229.5C250.72,231.443 252.286,233.018 254.219,233.018Z" transform="rotate(180 254.219 229.5)" fill="#9871F5"/>
<path d="M254.219,257.459C256.151,257.459 257.718,255.884 257.718,253.941C257.718,251.997 256.151,250.422 254.219,250.422C252.286,250.422 250.72,251.997 250.72,253.941C250.72,255.884 252.286,257.459 254.219,257.459Z" transform="rotate(180 254.219 253.941)" fill="#9871F5"/>
<path d="M254.219,281.878C256.151,281.878 257.718,280.303 257.718,278.36C257.718,276.416 256.151,274.841 254.219,274.841C252.286,274.841 250.72,276.416 250.72,278.36C250.72,280.303 252.286,281.878 254.219,281.878Z" transform="rotate(180 254.219 278.36)" fill="#9871F5"/>
<path d="M254.219,306.319C256.151,306.319 257.718,304.744 257.718,302.8C257.718,300.857 256.151,299.282 254.219,299.282C252.286,299.282 250.72,300.857 250.72,302.8C250.72,304.744 252.286,306.319 254.219,306.319Z" transform="rotate(180 254.219 302.8)" fill="#9871F5"/>
<path d="M254.219,330.74C256.151,330.74 257.718,329.165 257.718,327.221C257.718,325.278 256.151,323.703 254.219,323.703C252.286,323.703 250.72,325.278 250.72,327.221C250.72,329.165 252.286,330.74 254.219,330.74Z" transform="rotate(180 254.219 327.221)" fill="#9871F5"/>
<path d="M254.219,355.18C256.151,355.18 257.718,353.604 257.718,351.661C257.718,349.718 256.151,348.143 254.219,348.143C252.286,348.143 250.72,349.718 250.72,351.661C250.72,353.604 252.286,355.18 254.219,355.18Z" transform="rotate(180 254.219 351.661)" fill="#9871F5"/>
<path d="M229.659,233.018C231.591,233.018 233.158,231.442 233.158,229.499C233.158,227.556 231.591,225.98 229.659,225.98C227.726,225.98 226.16,227.556 226.16,229.499C226.16,231.442 227.726,233.018 229.659,233.018Z" transform="rotate(180 229.659 229.499)" fill="#9871F5"/>
<path d="M229.659,257.459C231.591,257.459 233.158,255.884 233.158,253.94C233.158,251.997 231.591,250.422 229.659,250.422C227.726,250.422 226.16,251.997 226.16,253.94C226.16,255.884 227.726,257.459 229.659,257.459Z" transform="rotate(180 229.659 253.94)" fill="#9871F5"/>
<path d="M229.659,281.879C231.591,281.879 233.158,280.304 233.158,278.36C233.158,276.417 231.591,274.842 229.659,274.842C227.726,274.842 226.16,276.417 226.16,278.36C226.16,280.304 227.726,281.879 229.659,281.879Z" transform="rotate(180 229.659 278.36)" fill="#9871F5"/>
<path d="M229.659,306.319C231.591,306.319 233.158,304.744 233.158,302.801C233.158,300.858 231.591,299.282 229.659,299.282C227.726,299.282 226.16,300.858 226.16,302.801C226.16,304.744 227.726,306.319 229.659,306.319Z" transform="rotate(180 229.659 302.801)" fill="#9871F5"/>
<path d="M229.659,330.74C231.591,330.74 233.158,329.165 233.158,327.222C233.158,325.278 231.591,323.703 229.659,323.703C227.726,323.703 226.16,325.278 226.16,327.222C226.16,329.165 227.726,330.74 229.659,330.74Z" transform="rotate(180 229.659 327.222)" fill="#9871F5"/>
<path d="M229.659,355.18C231.591,355.18 233.158,353.604 233.158,351.661C233.158,349.718 231.591,348.142 229.659,348.142C227.726,348.142 226.16,349.718 226.16,351.661C226.16,353.604 227.726,355.18 229.659,355.18Z" transform="rotate(180 229.659 351.661)" fill="#9871F5"/>
<path d="M205.08,233.018C207.013,233.018 208.579,231.442 208.579,229.499C208.579,227.556 207.013,225.98 205.08,225.98C203.148,225.98 201.581,227.556 201.581,229.499C201.581,231.442 203.148,233.018 205.08,233.018Z" transform="rotate(180 205.08 229.499)" fill="#9871F5"/>
<path d="M205.08,257.459C207.013,257.459 208.579,255.884 208.579,253.94C208.579,251.997 207.013,250.422 205.08,250.422C203.148,250.422 201.581,251.997 201.581,253.94C201.581,255.884 203.148,257.459 205.08,257.459Z" transform="rotate(180 205.08 253.94)" fill="#9871F5"/>
<path d="M205.08,281.879C207.013,281.879 208.579,280.304 208.579,278.36C208.579,276.417 207.013,274.842 205.08,274.842C203.148,274.842 201.581,276.417 201.581,278.36C201.581,280.304 203.148,281.879 205.08,281.879Z" transform="rotate(180 205.08 278.36)" fill="#9871F5"/>
<path d="M205.08,306.319C207.013,306.319 208.579,304.744 208.579,302.801C208.579,300.858 207.013,299.282 205.08,299.282C203.148,299.282 201.581,300.858 201.581,302.801C201.581,304.744 203.148,306.319 205.08,306.319Z" transform="rotate(180 205.08 302.801)" fill="#9871F5"/>
<path d="M205.08,330.74C207.013,330.74 208.579,329.165 208.579,327.222C208.579,325.278 207.013,323.703 205.08,323.703C203.148,323.703 201.581,325.278 201.581,327.222C201.581,329.165 203.148,330.74 205.08,330.74Z" transform="rotate(180 205.08 327.222)" fill="#9871F5"/>
<path d="M205.08,355.18C207.013,355.18 208.579,353.604 208.579,351.661C208.579,349.718 207.013,348.143 205.08,348.143C203.148,348.143 201.581,349.718 201.581,351.661C201.581,353.604 203.148,355.18 205.08,355.18Z" transform="rotate(180 205.08 351.661)" fill="#9871F5"/>
<path d="M180.521,233.018C182.453,233.018 184.02,231.442 184.02,229.499C184.02,227.556 182.453,225.98 180.521,225.98C178.588,225.98 177.022,227.556 177.022,229.499C177.022,231.442 178.588,233.018 180.521,233.018Z" transform="rotate(180 180.521 229.499)" fill="#9871F5"/>
<path d="M180.521,257.459C182.453,257.459 184.02,255.884 184.02,253.94C184.02,251.997 182.453,250.422 180.521,250.422C178.588,250.422 177.022,251.997 177.022,253.94C177.022,255.884 178.588,257.459 180.521,257.459Z" transform="rotate(180 180.521 253.94)" fill="#9871F5"/>
<path d="M180.521,281.879C182.453,281.879 184.02,280.304 184.02,278.36C184.02,276.417 182.453,274.842 180.521,274.842C178.588,274.842 177.022,276.417 177.022,278.36C177.022,280.304 178.588,281.879 180.521,281.879Z" transform="rotate(180 180.521 278.36)" fill="#9871F5"/>
<path d="M180.521,306.319C182.453,306.319 184.02,304.744 184.02,302.801C184.02,300.857 182.453,299.282 180.521,299.282C178.588,299.282 177.022,300.857 177.022,302.801C177.022,304.744 178.588,306.319 180.521,306.319Z" transform="rotate(180 180.521 302.801)" fill="#9871F5"/>
<path d="M180.521,330.74C182.453,330.74 184.02,329.165 184.02,327.222C184.02,325.278 182.453,323.703 180.521,323.703C178.588,323.703 177.022,325.278 177.022,327.222C177.022,329.165 178.588,330.74 180.521,330.74Z" transform="rotate(180 180.521 327.222)" fill="#9871F5"/>
<path d="M180.521,355.18C182.453,355.18 184.02,353.604 184.02,351.661C184.02,349.718 182.453,348.142 180.521,348.142C178.588,348.142 177.022,349.718 177.022,351.661C177.022,353.604 178.588,355.18 180.521,355.18Z" transform="rotate(180 180.521 351.661)" fill="#9871F5"/>
<path d="M499.338,1039.171C501.271,1039.171 502.837,1037.595 502.837,1035.652C502.837,1033.709 501.271,1032.133 499.338,1032.133C497.406,1032.133 495.839,1033.709 495.839,1035.652C495.839,1037.595 497.406,1039.171 499.338,1039.171Z" transform="rotate(180 499.338 1035.652)" fill="#9871F5"/>
<path d="M499.339,1063.594C501.271,1063.594 502.838,1062.018 502.838,1060.075C502.838,1058.132 501.271,1056.556 499.339,1056.556C497.406,1056.556 495.84,1058.132 495.84,1060.075C495.84,1062.018 497.406,1063.594 499.339,1063.594Z" transform="rotate(180 499.339 1060.075)" fill="#9871F5"/>
<path d="M499.339,1088.03C501.271,1088.03 502.838,1086.455 502.838,1084.512C502.838,1082.568 501.271,1080.993 499.339,1080.993C497.406,1080.993 495.84,1082.568 495.84,1084.512C495.84,1086.455 497.406,1088.03 499.339,1088.03Z" transform="rotate(180 499.339 1084.512)" fill="#9871F5"/>
<path d="M474.76,1039.17C476.693,1039.17 478.259,1037.595 478.259,1035.651C478.259,1033.708 476.693,1032.133 474.76,1032.133C472.828,1032.133 471.261,1033.708 471.261,1035.651C471.261,1037.595 472.828,1039.17 474.76,1039.17Z" transform="rotate(180 474.76 1035.651)" fill="#9871F5"/>
<path d="M474.76,1063.594C476.693,1063.594 478.259,1062.018 478.259,1060.075C478.259,1058.132 476.693,1056.557 474.76,1056.557C472.828,1056.557 471.261,1058.132 471.261,1060.075C471.261,1062.018 472.828,1063.594 474.76,1063.594Z" transform="rotate(180 474.76 1060.075)" fill="#9871F5"/>
<path d="M474.76,1088.03C476.693,1088.03 478.259,1086.455 478.259,1084.512C478.259,1082.568 476.693,1080.993 474.76,1080.993C472.828,1080.993 471.261,1082.568 471.261,1084.512C471.261,1086.455 472.828,1088.03 474.76,1088.03Z" transform="rotate(180 474.76 1084.512)" fill="#9871F5"/>
<path d="M606.805,523.672C608.737,523.672 610.304,522.097 610.304,520.153C610.304,518.21 608.737,516.635 606.805,516.635C604.872,516.635 603.305,518.21 603.305,520.153C603.305,522.097 604.872,523.672 606.805,523.672Z" transform="rotate(180 606.804 520.153)" fill="#9871F5"/>
<path d="M606.805,548.092C608.737,548.092 610.304,546.517 610.304,544.574C610.304,542.63 608.737,541.055 606.805,541.055C604.872,541.055 603.306,542.63 603.306,544.574C603.306,546.517 604.872,548.092 606.805,548.092Z" transform="rotate(180 606.805 544.574)" fill="#9871F5"/>
<path d="M606.805,572.532C608.737,572.532 610.304,570.957 610.304,569.013C610.304,567.07 608.737,565.495 606.805,565.495C604.872,565.495 603.306,567.07 603.306,569.013C603.306,570.957 604.872,572.532 606.805,572.532Z" transform="rotate(180 606.805 569.013)" fill="#9871F5"/>
<path d="M582.226,523.672C584.159,523.672 585.725,522.096 585.725,520.153C585.725,518.21 584.159,516.634 582.226,516.634C580.294,516.634 578.727,518.21 578.727,520.153C578.727,522.096 580.294,523.672 582.226,523.672Z" transform="rotate(180 582.226 520.153)" fill="#9871F5"/>
<path d="M582.226,548.092C584.159,548.092 585.725,546.517 585.725,544.574C585.725,542.631 584.159,541.055 582.226,541.055C580.294,541.055 578.727,542.631 578.727,544.574C578.727,546.517 580.294,548.092 582.226,548.092Z" transform="rotate(180 582.226 544.574)" fill="#9871F5"/>
<path d="M582.226,572.533C584.159,572.533 585.725,570.958 585.725,569.014C585.725,567.071 584.159,565.496 582.226,565.496C580.294,565.496 578.727,567.071 578.727,569.014C578.727,570.958 580.294,572.533 582.226,572.533Z" transform="rotate(180 582.226 569.014)" fill="#9871F5"/>
<path d="M254.219,1398.019C256.151,1398.019 257.718,1396.444 257.718,1394.5C257.718,1392.557 256.151,1390.982 254.219,1390.982C252.286,1390.982 250.72,1392.557 250.72,1394.5C250.72,1396.444 252.286,1398.019 254.219,1398.019Z" transform="rotate(180 254.219 1394.5)" fill="#9871F5"/>
<path d="M229.64,1398.02C231.573,1398.02 233.139,1396.444 233.139,1394.501C233.139,1392.558 231.573,1390.982 229.64,1390.982C227.708,1390.982 226.141,1392.558 226.141,1394.501C226.141,1396.444 227.708,1398.02 229.64,1398.02Z" transform="rotate(180 229.64 1394.501)" fill="#9871F5"/>
<path d="M205.08,1398.02C207.013,1398.02 208.579,1396.444 208.579,1394.501C208.579,1392.558 207.013,1390.982 205.08,1390.982C203.148,1390.982 201.581,1392.558 201.581,1394.501C201.581,1396.444 203.148,1398.02 205.08,1398.02Z" transform="rotate(180 205.08 1394.501)" fill="#9871F5"/>
<path d="M180.502,1398.02C182.434,1398.02 184.001,1396.444 184.001,1394.501C184.001,1392.558 182.434,1390.982 180.502,1390.982C178.569,1390.982 177.003,1392.558 177.003,1394.501C177.003,1396.444 178.569,1398.02 180.502,1398.02Z" transform="rotate(180 180.502 1394.501)" fill="#9871F5"/>
<path d="M155.942,1398.02C157.875,1398.02 159.441,1396.444 159.441,1394.501C159.441,1392.558 157.875,1390.982 155.942,1390.982C154.01,1390.982 152.443,1392.558 152.443,1394.501C152.443,1396.444 154.01,1398.02 155.942,1398.02Z" transform="rotate(180 155.942 1394.501)" fill="#9871F5"/>
<path d="M131.364,1398.02C133.296,1398.02 134.863,1396.444 134.863,1394.501C134.863,1392.558 133.296,1390.982 131.364,1390.982C129.431,1390.982 127.865,1392.558 127.865,1394.501C127.865,1396.444 129.431,1398.02 131.364,1398.02Z" transform="rotate(180 131.364 1394.501)" fill="#9871F5"/>
<path d="M106.804,1398.02C108.736,1398.02 110.303,1396.444 110.303,1394.501C110.303,1392.558 108.736,1390.982 106.804,1390.982C104.871,1390.982 103.305,1392.558 103.305,1394.501C103.305,1396.444 104.871,1398.02 106.804,1398.02Z" transform="rotate(180 106.804 1394.501)" fill="#9871F5"/>
<path d="M254.219,1373.58C256.151,1373.58 257.718,1372.005 257.718,1370.062C257.718,1368.118 256.151,1366.543 254.219,1366.543C252.286,1366.543 250.72,1368.118 250.72,1370.062C250.72,1372.005 252.286,1373.58 254.219,1373.58Z" transform="rotate(180 254.219 1370.062)" fill="#9871F5"/>
<path d="M229.64,1373.58C231.573,1373.58 233.139,1372.005 233.139,1370.062C233.139,1368.118 231.573,1366.543 229.64,1366.543C227.708,1366.543 226.141,1368.118 226.141,1370.062C226.141,1372.005 227.708,1373.58 229.64,1373.58Z" transform="rotate(180 229.64 1370.062)" fill="#9871F5"/>
<path d="M205.08,1373.58C207.013,1373.58 208.579,1372.005 208.579,1370.062C208.579,1368.118 207.013,1366.543 205.08,1366.543C203.148,1366.543 201.581,1368.118 201.581,1370.062C201.581,1372.005 203.148,1373.58 205.08,1373.58Z" transform="rotate(180 205.08 1370.062)" fill="#9871F5"/>
<path d="M180.502,1373.58C182.434,1373.58 184.001,1372.005 184.001,1370.062C184.001,1368.118 182.434,1366.543 180.502,1366.543C178.569,1366.543 177.003,1368.118 177.003,1370.062C177.003,1372.005 178.569,1373.58 180.502,1373.58Z" transform="rotate(180 180.502 1370.062)" fill="#9871F5"/>
<path d="M155.942,1373.58C157.875,1373.58 159.441,1372.005 159.441,1370.062C159.441,1368.118 157.875,1366.543 155.942,1366.543C154.01,1366.543 152.443,1368.118 152.443,1370.062C152.443,1372.005 154.01,1373.58 155.942,1373.58Z" transform="rotate(180 155.942 1370.062)" fill="#9871F5"/>
<path d="M131.364,1373.58C133.296,1373.58 134.863,1372.005 134.863,1370.062C134.863,1368.118 133.296,1366.543 131.364,1366.543C129.431,1366.543 127.865,1368.118 127.865,1370.062C127.865,1372.005 129.431,1373.58 131.364,1373.58Z" transform="rotate(180 131.364 1370.062)" fill="#9871F5"/>
<path d="M106.804,1373.58C108.736,1373.58 110.303,1372.005 110.303,1370.062C110.303,1368.118 108.736,1366.543 106.804,1366.543C104.871,1366.543 103.305,1368.118 103.305,1370.062C103.305,1372.005 104.871,1373.58 106.804,1373.58Z" transform="rotate(180 106.804 1370.062)" fill="#9871F5"/>
<path d="M254.219,1349.158C256.151,1349.158 257.718,1347.583 257.718,1345.64C257.718,1343.696 256.151,1342.121 254.219,1342.121C252.286,1342.121 250.72,1343.696 250.72,1345.64C250.72,1347.583 252.286,1349.158 254.219,1349.158Z" transform="rotate(180 254.219 1345.64)" fill="#9871F5"/>
<path d="M229.64,1349.158C231.573,1349.158 233.139,1347.583 233.139,1345.64C233.139,1343.696 231.573,1342.121 229.64,1342.121C227.708,1342.121 226.141,1343.696 226.141,1345.64C226.141,1347.583 227.708,1349.158 229.64,1349.158Z" transform="rotate(180 229.64 1345.64)" fill="#9871F5"/>
<path d="M205.08,1349.158C207.013,1349.158 208.579,1347.583 208.579,1345.64C208.579,1343.696 207.013,1342.121 205.08,1342.121C203.148,1342.121 201.581,1343.696 201.581,1345.64C201.581,1347.583 203.148,1349.158 205.08,1349.158Z" transform="rotate(180 205.08 1345.64)" fill="#9871F5"/>
<path d="M180.502,1349.158C182.434,1349.158 184.001,1347.583 184.001,1345.64C184.001,1343.696 182.434,1342.121 180.502,1342.121C178.569,1342.121 177.003,1343.696 177.003,1345.64C177.003,1347.583 178.569,1349.158 180.502,1349.158Z" transform="rotate(180 180.502 1345.64)" fill="#9871F5"/>
<path d="M155.942,1349.158C157.875,1349.158 159.441,1347.583 159.441,1345.64C159.441,1343.696 157.875,1342.121 155.942,1342.121C154.01,1342.121 152.443,1343.696 152.443,1345.64C152.443,1347.583 154.01,1349.158 155.942,1349.158Z" transform="rotate(180 155.942 1345.64)" fill="#9871F5"/>
<path d="M131.364,1349.158C133.296,1349.158 134.863,1347.583 134.863,1345.64C134.863,1343.696 133.296,1342.121 131.364,1342.121C129.431,1342.121 127.865,1343.696 127.865,1345.64C127.865,1347.583 129.431,1349.158 131.364,1349.158Z" transform="rotate(180 131.364 1345.64)" fill="#9871F5"/>
<path d="M106.804,1349.158C108.736,1349.158 110.303,1347.583 110.303,1345.64C110.303,1343.696 108.736,1342.121 106.804,1342.121C104.871,1342.121 103.305,1343.696 103.305,1345.64C103.305,1347.583 104.871,1349.158 106.804,1349.158Z" transform="rotate(180 106.804 1345.64)" fill="#9871F5"/>
<path d="M254.217,1324.72C256.149,1324.72 257.716,1323.144 257.716,1321.201C257.716,1319.258 256.149,1317.682 254.217,1317.682C252.284,1317.682 250.718,1319.258 250.718,1321.201C250.718,1323.144 252.284,1324.72 254.217,1324.72Z" transform="rotate(180 254.217 1321.201)" fill="#9871F5"/>
<path d="M229.64,1324.719C231.573,1324.719 233.139,1323.143 233.139,1321.2C233.139,1319.257 231.573,1317.682 229.64,1317.682C227.708,1317.682 226.141,1319.257 226.141,1321.2C226.141,1323.143 227.708,1324.719 229.64,1324.719Z" transform="rotate(180 229.64 1321.2)" fill="#9871F5"/>
<path d="M205.08,1324.719C207.013,1324.719 208.579,1323.143 208.579,1321.2C208.579,1319.257 207.013,1317.682 205.08,1317.682C203.148,1317.682 201.581,1319.257 201.581,1321.2C201.581,1323.143 203.148,1324.719 205.08,1324.719Z" transform="rotate(180 205.08 1321.2)" fill="#9871F5"/>
<path d="M180.502,1324.719C182.434,1324.719 184.001,1323.143 184.001,1321.2C184.001,1319.257 182.434,1317.682 180.502,1317.682C178.569,1317.682 177.003,1319.257 177.003,1321.2C177.003,1323.143 178.569,1324.719 180.502,1324.719Z" transform="rotate(180 180.502 1321.2)" fill="#9871F5"/>
<path d="M155.942,1324.719C157.875,1324.719 159.441,1323.143 159.441,1321.2C159.441,1319.257 157.875,1317.682 155.942,1317.682C154.01,1317.682 152.443,1319.257 152.443,1321.2C152.443,1323.143 154.01,1324.719 155.942,1324.719Z" transform="rotate(180 155.942 1321.2)" fill="#9871F5"/>
<path d="M131.364,1324.719C133.296,1324.719 134.863,1323.143 134.863,1321.2C134.863,1319.257 133.296,1317.682 131.364,1317.682C129.431,1317.682 127.865,1319.257 127.865,1321.2C127.865,1323.143 129.431,1324.719 131.364,1324.719Z" transform="rotate(180 131.364 1321.2)" fill="#9871F5"/>
<path d="M106.804,1324.719C108.736,1324.719 110.303,1323.143 110.303,1321.2C110.303,1319.257 108.736,1317.682 106.804,1317.682C104.871,1317.682 103.305,1319.257 103.305,1321.2C103.305,1323.143 104.871,1324.719 106.804,1324.719Z" transform="rotate(180 106.804 1321.2)" fill="#9871F5"/>
<path d="M269.647,735.955L231.339,735.955C221.145,735.955 216,740.896 216,750.683L216,803.062C216,804.345 216.69,805.135 218.177,805.135L229.757,805.135C231.143,805.135 232.035,804.345 232.035,803.062L232.035,801.074C232.035,796.222 234.082,793.578 239.171,793.068L269.647,793.068C280.829,793.068 285.878,788.228 285.878,777.651L285.878,751.372C285.878,740.795 280.829,735.955 269.647,735.955ZM269.86,773.203C269.86,778.94 268.559,780.122 261.725,780.122L245.494,780.122C238.666,780.122 234.307,782.396 232.029,786.844L232.029,754.537C232.029,750.089 233.117,748.901 238.56,748.901L261.725,748.901C268.559,748.901 269.86,750.089 269.86,755.82L269.86,773.203Z" fill="#FFFFFF"/>
<path d="M322.598,764.912C313.79,764.912 310.025,769.36 310.025,776.873L310.025,803.258C310.025,804.446 309.431,805.135 308.045,805.135L297.553,805.135C296.168,805.135 295.478,804.446 295.478,803.258L295.478,755.03C295.478,753.842 296.168,753.148 297.553,753.148L306.362,753.148C307.652,753.148 308.342,753.842 308.342,755.03L308.342,762.811C310.025,756.391 314.878,753.125 323.491,753.125L327.053,753.125C328.338,753.125 329.028,753.82 329.028,755.008L329.028,763.036C329.028,764.318 328.338,764.912 327.053,764.912L322.598,764.912Z" fill="#FFFFFF"/>
<path d="M390.889,791.001C390.889,800.788 386.535,805.135 376.145,805.135L350.409,805.135C340.114,805.135 335.66,800.788 335.66,791.001L335.66,767.293C335.66,757.512 340.114,753.159 350.409,753.159L376.145,753.159C386.535,753.159 390.889,757.512 390.889,767.293L390.889,791.001ZM376.341,771.041C376.341,765.898 375.353,764.912 369.216,764.912L357.434,764.912C351.2,764.912 350.207,765.898 350.207,771.041L350.207,787.248C350.207,792.385 351.2,793.376 357.434,793.376L369.216,793.376C375.353,793.376 376.341,792.385 376.341,787.248L376.341,771.041Z" fill="#FFFFFF"/>
<path d="M405.538,764.912L400.584,764.912C399.293,764.912 398.603,764.318 398.603,763.036L398.603,755.03C398.603,753.842 399.293,753.148 400.584,753.148L405.532,753.148L405.532,746.728C405.538,736.941 410.682,732 420.876,732L433.051,732C434.437,732 435.031,732.695 435.031,733.877L435.031,741.882C435.031,743.171 434.437,743.759 433.051,743.759L426.621,743.759C421.174,743.759 420.085,744.946 420.085,749.394L420.085,753.148L433.051,753.148C434.437,753.148 435.031,753.842 435.031,755.03L435.031,763.036C435.031,764.318 434.437,764.912 433.051,764.912L420.085,764.912L420.085,803.258C420.085,804.446 419.395,805.135 418.01,805.135L407.518,805.135C406.132,805.135 405.538,804.446 405.538,803.258L405.538,764.912Z" fill="#FFFFFF"/>
<path d="M445.921,764.912L440.979,764.912C439.694,764.912 439.004,764.318 439.004,763.036L439.004,755.03C439.004,753.842 439.694,753.148 440.979,753.148L445.933,753.148L445.933,746.728C445.921,736.941 451.077,732 461.26,732L473.435,732C474.821,732 475.416,732.695 475.416,733.877L475.416,741.882C475.416,743.171 474.821,743.759 473.435,743.759L467,743.759C461.558,743.759 460.469,744.946 460.469,749.394L460.469,753.148L473.435,753.148C474.821,753.148 475.416,753.842 475.416,755.03L475.416,763.036C475.416,764.318 474.821,764.912 473.435,764.912L460.469,764.912L460.469,803.258C460.469,804.446 459.774,805.135 458.388,805.135L447.896,805.135C446.511,805.135 445.921,804.446 445.921,803.258L445.921,764.912Z" fill="#FFFFFF"/>
<path d="M519.654,825.297L498.076,825.297C488.381,825.297 484.224,821.544 484.224,812.25L484.224,811.264C484.195,810.999 484.227,810.73 484.316,810.479C484.405,810.227 484.55,809.999 484.74,809.811C484.93,809.624 485.159,809.481 485.412,809.394C485.665,809.307 485.933,809.278 486.199,809.309L496.298,809.309C497.683,809.309 498.374,810.003 498.374,811.286L498.374,811.779C498.374,813.757 499.468,814.547 501.644,814.547L514.116,814.547C520.052,814.547 521.539,813.068 521.539,808.026L521.539,792.435C519.261,796.883 514.908,799.158 508.074,799.158L497.975,799.158C487.68,799.158 483.124,794.81 483.124,785.024L483.124,755.03C483.111,754.771 483.154,754.512 483.25,754.271C483.346,754.03 483.493,753.813 483.681,753.634C483.869,753.456 484.094,753.319 484.34,753.236C484.585,753.152 484.846,753.122 485.105,753.148L495.697,753.148C496.982,753.148 497.678,753.842 497.678,755.03L497.678,781.298C497.678,786.435 498.766,787.427 504.904,787.427L512.428,787.427C518.958,787.427 521.534,784.755 521.534,779.321L521.534,755.03C521.534,753.842 522.224,753.148 523.514,753.148L534.112,753.148C534.366,753.123 534.621,753.155 534.861,753.241C535.1,753.327 535.318,753.465 535.497,753.645C535.677,753.825 535.815,754.043 535.9,754.282C535.986,754.522 536.017,754.777 535.992,755.03L535.992,809.583C535.986,819.953 530.443,825.297 519.654,825.297Z" fill="#FFFFFF"/>
<path d="M230.068,852.859C230.068,846.021 220.088,848.99 220.088,844.219C220.088,842.231 221.654,841.197 223.645,841.25C225.901,841.277 227.069,842.682 227.228,843.927L229.882,843.927C229.59,841.118 227.281,839.183 223.751,839.183C220.088,839.183 217.619,841.25 217.619,844.298C217.619,851.163 227.626,847.982 227.626,852.965C227.626,854.714 226.246,856.04 223.91,856.04C221.335,856.04 220.247,854.502 220.088,852.965L217.513,852.965C217.566,856.013 220.194,858.081 223.91,858.081C227.918,858.081 230.068,855.483 230.068,852.859Z" fill="#D4C2FF"/>
<path d="M246.523,843.371L244.108,843.371L244.108,851.348C244.108,854.476 242.435,856.013 239.94,856.013C237.498,856.013 235.879,854.502 235.879,851.56L235.879,843.371L233.49,843.371L233.49,851.879C233.49,856.04 236.118,858.107 239.462,858.107C241.4,858.107 243.179,857.259 244.108,855.748L244.108,857.895L246.523,857.895L246.523,843.371Z" fill="#D4C2FF"/>
<path d="M249.699,850.58C249.699,855.086 252.698,858.134 256.574,858.134C259.255,858.134 261.139,856.755 262.015,855.192L262.015,857.895L264.457,857.895L264.457,843.371L262.015,843.371L262.015,846.021C261.166,844.51 259.308,843.132 256.6,843.132C252.698,843.132 249.699,846.048 249.699,850.58ZM262.015,850.606C262.015,854.025 259.733,856.013 257.078,856.013C254.424,856.013 252.168,853.999 252.168,850.58C252.168,847.161 254.424,845.226 257.078,845.226C259.733,845.226 262.015,847.24 262.015,850.606Z" fill="#D4C2FF"/>
<path d="M278.031,846.048L278.031,843.371L275.616,843.371L275.616,864.786L278.031,864.786L278.031,855.218C278.934,856.702 280.818,858.134 283.473,858.134C287.375,858.134 290.374,855.086 290.374,850.58C290.374,846.048 287.375,843.132 283.473,843.132C280.818,843.132 278.907,844.51 278.031,846.048ZM287.906,850.58C287.906,853.999 285.649,856.013 282.969,856.013C280.341,856.013 278.031,854.025 278.031,850.606C278.031,847.24 280.341,845.226 282.969,845.226C285.649,845.226 287.906,847.161 287.906,850.58Z" fill="#D4C2FF"/>
<path d="M293.554,857.895L295.969,857.895L295.969,838.282L293.554,838.282L293.554,857.895Z" fill="#D4C2FF"/>
<path d="M299.183,850.58C299.183,855.086 302.183,858.134 306.058,858.134C308.739,858.134 310.624,856.755 311.5,855.192L311.5,857.895L313.942,857.895L313.942,843.371L311.5,843.371L311.5,846.021C310.65,844.51 308.792,843.132 306.085,843.132C302.183,843.132 299.183,846.048 299.183,850.58ZM311.5,850.606C311.5,854.025 309.217,856.013 306.563,856.013C303.908,856.013 301.652,853.999 301.652,850.58C301.652,847.161 303.908,845.226 306.563,845.226C309.217,845.226 311.5,847.24 311.5,850.606Z" fill="#D4C2FF"/>
<path d="M318.475,857.895L320.89,857.895L320.89,845.358L323.943,845.358L323.943,843.371L320.89,843.371L320.89,842.337C320.89,840.455 321.607,839.66 323.784,839.66L323.784,837.646C320.068,837.646 318.475,839.103 318.475,842.337L318.475,843.371L316.59,843.371L316.59,845.358L318.475,845.358L318.475,857.895Z" fill="#D4C2FF"/>
<path d="M340.562,850.606C340.562,846.021 337.35,843.132 333.209,843.132C329.095,843.132 325.857,846.021 325.857,850.606C325.857,855.218 328.989,858.134 333.103,858.134C337.244,858.134 340.562,855.218 340.562,850.606ZM328.325,850.606C328.325,846.949 330.635,845.226 333.183,845.226C335.678,845.226 338.094,846.949 338.094,850.606C338.094,854.29 335.625,856.013 333.103,856.013C330.582,856.013 328.325,854.29 328.325,850.606Z" fill="#D4C2FF"/>
<path d="M346.153,849.997C346.153,846.631 347.905,845.597 350.215,845.597L350.852,845.597L350.852,843.106C348.542,843.106 346.976,844.113 346.153,845.73L346.153,843.371L343.738,843.371L343.738,857.895L346.153,857.895L346.153,849.997Z" fill="#D4C2FF"/>
<path d="M374.636,857.895L377.025,857.895L377.025,849.334C377.025,845.173 374.45,843.106 371.132,843.106C368.903,843.106 366.832,844.245 365.983,846.339C365.027,844.166 363.037,843.106 360.648,843.106C358.736,843.106 357.011,843.927 356.056,845.464L356.056,843.371L353.64,843.371L353.64,857.895L356.056,857.895L356.056,849.891C356.056,846.763 357.728,845.199 360.17,845.199C362.559,845.199 364.151,846.71 364.151,849.679L364.151,857.895L366.54,857.895L366.54,849.891C366.54,846.763 368.213,845.199 370.655,845.199C373.044,845.199 374.636,846.71 374.636,849.679L374.636,857.895Z" fill="#D4C2FF"/>
<path d="M380.085,850.58C380.085,855.086 383.084,858.134 386.96,858.134C389.641,858.134 391.525,856.755 392.401,855.192L392.401,857.895L394.843,857.895L394.843,843.371L392.401,843.371L392.401,846.021C391.552,844.51 389.694,843.132 386.986,843.132C383.084,843.132 380.085,846.048 380.085,850.58ZM392.401,850.606C392.401,854.025 390.118,856.013 387.464,856.013C384.81,856.013 382.554,853.999 382.554,850.58C382.554,847.161 384.81,845.226 387.464,845.226C390.118,845.226 392.401,847.24 392.401,850.606Z" fill="#D4C2FF"/>
<path d="M405.099,850.58C405.099,855.086 408.099,858.134 412.001,858.134C414.655,858.134 416.54,856.782 417.415,855.165L417.415,857.895L419.857,857.895L419.857,838.282L417.415,838.282L417.415,845.968C416.407,844.298 414.31,843.132 412.027,843.132C408.099,843.132 405.099,846.048 405.099,850.58ZM417.415,850.606C417.415,854.025 415.133,856.013 412.479,856.013C409.824,856.013 407.568,853.999 407.568,850.58C407.568,847.161 409.824,845.226 412.479,845.226C415.133,845.226 417.415,847.24 417.415,850.606Z" fill="#D4C2FF"/>
<path d="M430.123,845.173C432.619,845.173 434.743,846.737 434.715,849.573L425.531,849.573C425.797,846.737 427.761,845.173 430.123,845.173ZM436.919,853.416L434.317,853.416C433.787,854.979 432.407,856.093 430.231,856.093C427.761,856.093 425.691,854.476 425.505,851.534L437.131,851.534C437.185,851.03 437.211,850.606 437.211,850.076C437.211,846.101 434.451,843.132 430.231,843.132C425.983,843.132 423.037,846.021 423.037,850.606C423.037,855.218 426.089,858.134 430.231,858.134C433.841,858.134 436.175,856.066 436.919,853.416Z" fill="#D4C2FF"/>
<path d="M224.229,879.039C226.724,879.039 228.847,880.603 228.821,883.439L219.637,883.439C219.902,880.603 221.866,879.039 224.229,879.039ZM231.024,887.282L228.423,887.282C227.892,888.846 226.511,889.959 224.335,889.959C221.866,889.959 219.796,888.342 219.61,885.4L231.236,885.4C231.289,884.897 231.316,884.473 231.316,883.943C231.316,879.967 228.555,876.999 224.335,876.999C220.088,876.999 217.141,879.888 217.141,884.473C217.141,889.085 220.194,892 224.335,892C227.945,892 230.281,889.933 231.024,887.282Z" fill="#D4C2FF"/>
<path d="M244.962,887.812C244.856,882.618 236.415,884.499 236.415,881.054C236.415,879.888 237.477,879.039 239.255,879.039C241.193,879.039 242.308,880.1 242.414,881.557L244.83,881.557C244.67,878.721 242.547,876.999 239.335,876.999C236.097,876.999 234,878.827 234,881.054C234,886.461 242.6,884.579 242.6,887.812C242.6,889.005 241.538,889.959 239.627,889.959C237.583,889.959 236.336,888.899 236.203,887.494L233.708,887.494C233.867,890.145 236.256,892 239.654,892C242.865,892 244.962,890.198 244.962,887.812Z" fill="#D4C2FF"/>
<path d="M248.903,887.786C248.903,890.701 250.363,891.761 252.938,891.761L255.114,891.761L255.114,889.721L253.336,889.721C251.849,889.721 251.319,889.217 251.319,887.786L251.319,879.225L255.114,879.225L255.114,877.237L251.319,877.237L251.319,873.58L248.903,873.58L248.903,877.237L247.018,877.237L247.018,879.225L248.903,879.225L248.903,887.786Z" fill="#D4C2FF"/>
<path d="M270.941,877.237L268.526,877.237L268.526,885.215C268.526,888.342 266.854,889.88 264.358,889.88C261.916,889.88 260.297,888.369 260.297,885.427L260.297,877.237L257.908,877.237L257.908,885.745C257.908,889.906 260.536,891.974 263.881,891.974C265.818,891.974 267.597,891.125 268.526,889.615L268.526,891.761L270.941,891.761L270.941,877.237Z" fill="#D4C2FF"/>
<path d="M274.117,884.446C274.117,888.952 277.117,892 281.019,892C283.673,892 285.558,890.648 286.434,889.032L286.434,891.761L288.876,891.761L288.876,872.148L286.434,872.148L286.434,879.835C285.425,878.165 283.328,876.999 281.045,876.999C277.117,876.999 274.117,879.914 274.117,884.446ZM286.434,884.473C286.434,887.892 284.151,889.88 281.496,889.88C278.842,889.88 276.586,887.865 276.586,884.446C276.586,881.027 278.842,879.092 281.496,879.092C284.151,879.092 286.434,881.107 286.434,884.473Z" fill="#D4C2FF"/>
<path d="M306.76,884.473C306.76,879.888 303.548,876.999 299.408,876.999C295.293,876.999 292.055,879.888 292.055,884.473C292.055,889.085 295.187,892 299.301,892C303.442,892 306.76,889.085 306.76,884.473ZM294.524,884.473C294.524,880.815 296.833,879.092 299.381,879.092C301.876,879.092 304.292,880.815 304.292,884.473C304.292,888.157 301.823,889.88 299.301,889.88C296.78,889.88 294.524,888.157 294.524,884.473Z" fill="#D4C2FF"/>
<path d="M320.394,887.812C320.288,882.618 311.847,884.499 311.847,881.054C311.847,879.888 312.909,879.039 314.688,879.039C316.625,879.039 317.74,880.1 317.846,881.557L320.262,881.557C320.102,878.721 317.979,876.999 314.767,876.999C311.529,876.999 309.432,878.827 309.432,881.054C309.432,886.461 318.032,884.579 318.032,887.812C318.032,889.005 316.97,889.959 315.059,889.959C313.015,889.959 311.768,888.899 311.635,887.494L309.14,887.494C309.299,890.145 311.688,892 315.086,892C318.297,892 320.394,890.198 320.394,887.812Z" fill="#D4C2FF"/>
<path d="M344.684,884.473C344.684,879.888 341.472,876.999 337.331,876.999C333.217,876.999 329.978,879.888 329.978,884.473C329.978,889.085 333.111,892 337.225,892C341.366,892 344.684,889.085 344.684,884.473ZM332.447,884.473C332.447,880.815 334.756,879.092 337.304,879.092C339.8,879.092 342.215,880.815 342.215,884.473C342.215,888.157 339.746,889.88 337.225,889.88C334.703,889.88 332.447,888.157 332.447,884.473Z" fill="#D4C2FF"/>
<path d="M358.504,891.761L360.893,891.761L360.893,883.201C360.893,879.039 358.318,876.972 354.947,876.972C352.982,876.972 351.231,877.794 350.275,879.305L350.275,877.237L347.86,877.237L347.86,891.761L350.275,891.761L350.275,883.731C350.275,880.603 351.974,879.066 354.442,879.066C356.884,879.066 358.504,880.577 358.504,883.545L358.504,891.761Z" fill="#D4C2FF"/>
<path d="M364.838,891.761L367.254,891.761L367.254,872.148L364.838,872.148L364.838,891.761Z" fill="#D4C2FF"/>
<path d="M371.37,891.761L373.786,891.761L373.786,877.237L371.37,877.237L371.37,891.761ZM372.618,874.878C373.494,874.878 374.211,874.163 374.211,873.235C374.211,872.307 373.494,871.592 372.618,871.592C371.689,871.592 370.972,872.307 370.972,873.235C370.972,874.163 371.689,874.878 372.618,874.878Z" fill="#D4C2FF"/>
<path d="M388.547,891.761L390.936,891.761L390.936,883.201C390.936,879.039 388.361,876.972 384.99,876.972C383.026,876.972 381.274,877.794 380.318,879.305L380.318,877.237L377.903,877.237L377.903,891.761L380.318,891.761L380.318,883.731C380.318,880.603 382.017,879.066 384.486,879.066C386.928,879.066 388.547,880.577 388.547,883.545L388.547,891.761Z" fill="#D4C2FF"/>
<path d="M401.066,879.039C403.561,879.039 405.685,880.603 405.658,883.439L396.474,883.439C396.739,880.603 398.704,879.039 401.066,879.039ZM407.861,887.282L405.26,887.282C404.729,888.846 403.349,889.959 401.172,889.959C398.704,889.959 396.633,888.342 396.448,885.4L408.074,885.4C408.127,884.897 408.153,884.473 408.153,883.943C408.153,879.967 405.393,876.999 401.172,876.999C396.925,876.999 393.979,879.888 393.979,884.473C393.979,889.085 397.031,892 401.172,892C404.782,892 407.118,889.933 407.861,887.282Z" fill="#D4C2FF"/>
<path d="M413.704,890.277C413.704,889.35 412.987,888.634 412.111,888.634C411.182,888.634 410.466,889.35 410.466,890.277C410.466,891.205 411.182,891.921 412.111,891.921C412.987,891.921 413.704,891.205 413.704,890.277Z" fill="#D4C2FF"/>
</svg>
