<svg width="750" height="1624" viewBox="0 0 750 1624" fill="none" xmlns="http://www.w3.org/2000/svg" xmlns:xlink="http://www.w3.org/1999/xlink">
<g opacity="0.24">
<rect  x="240" y="1598" width="270" height="10" rx="200" fill="#000000"/>
</g>
<path d="M156,0L594,0L594,0C589.788,1.205 586.836,4.991 586.69,9.369L586.634,11.124L586.634,11.124C586.634,38.117 564.75,60 537.756,60L212.243,60C185.25,60 163.367,38.117 163.367,11.124L163.367,11.124L163.309,9.369C163.165,4.991 160.212,1.205 156,0L156,0Z" fill="#000000"/>
<g opacity="0.35" style="isolation:isolate">
<rect  x="672" y="38.667" width="44" height="22.667" rx="5.333" fill="#FFFFFF" stroke="#FFFFFF" stroke-width="1" stroke-miterlimit="3.999327"/>
</g>
<g opacity="0.4" style="isolation:isolate">
<path d="M718,46L718,54C719.609,53.323 720.656,51.746 720.656,50C720.656,48.254 719.609,46.678 718,46Z" fill="#FFFFFF"/>
</g>
<rect  x="676" y="42.667" width="36" height="14.667" rx="2.667" fill="#FFFFFF"/>
<path d="M646.661,43.216C651.092,43.216 655.355,44.919 658.567,47.973C658.808,48.208 659.195,48.205 659.433,47.966L661.745,45.633C661.866,45.511 661.933,45.347 661.932,45.176C661.931,45.004 661.862,44.841 661.74,44.721C653.31,36.642 640.01,36.642 631.58,44.721C631.458,44.841 631.389,45.004 631.387,45.175C631.386,45.347 631.453,45.511 631.574,45.633L633.887,47.966C634.125,48.206 634.512,48.209 634.753,47.973C637.966,44.919 642.228,43.216 646.661,43.216ZM646.661,50.807C649.096,50.807 651.444,51.712 653.249,53.347C653.493,53.579 653.877,53.574 654.115,53.335L656.425,51.002C656.546,50.88 656.614,50.714 656.612,50.541C656.61,50.369 656.539,50.204 656.415,50.084C650.919,44.971 642.407,44.971 636.911,50.084C636.787,50.204 636.716,50.369 636.714,50.541C636.712,50.714 636.78,50.88 636.902,51.002L639.211,53.335C639.449,53.574 639.833,53.579 640.077,53.347C641.881,51.713 644.227,50.808 646.661,50.807ZM651.287,55.915C651.29,56.088 651.222,56.255 651.099,56.376L647.104,60.407C646.987,60.526 646.827,60.593 646.661,60.593C646.494,60.593 646.334,60.526 646.217,60.407L642.222,56.376C642.099,56.255 642.031,56.088 642.034,55.915C642.038,55.742 642.113,55.578 642.241,55.462C644.792,53.304 648.529,53.304 651.08,55.462C651.208,55.578 651.283,55.742 651.287,55.915Z" clip-rule="evenodd" fill-rule="evenodd" fill="#FFFFFF"/>
<path d="M619.333,39.333L617.333,39.333C616.229,39.333 615.333,40.229 615.333,41.333L615.333,58.667C615.333,59.771 616.229,60.667 617.333,60.667L619.333,60.667C620.438,60.667 621.333,59.771 621.333,58.667L621.333,41.333C621.333,40.229 620.438,39.333 619.333,39.333ZM608,44L610,44C611.104,44 612,44.895 612,46L612,58.667C612,59.771 611.104,60.667 610,60.667L608,60.667C606.895,60.667 606,59.771 606,58.667L606,46C606,44.895 606.895,44 608,44ZM600.667,48.667L598.667,48.667C597.562,48.667 596.667,49.562 596.667,50.667L596.667,58.667C596.667,59.771 597.562,60.667 598.667,60.667L600.667,60.667C601.771,60.667 602.667,59.771 602.667,58.667L602.667,50.667C602.667,49.562 601.771,48.667 600.667,48.667ZM591.333,52.667L589.333,52.667C588.229,52.667 587.333,53.562 587.333,54.667L587.333,58.667C587.333,59.771 588.229,60.667 589.333,60.667L591.333,60.667C592.438,60.667 593.333,59.771 593.333,58.667L593.333,54.667C593.333,53.562 592.438,52.667 591.333,52.667Z" clip-rule="evenodd" fill-rule="evenodd" fill="#FFFFFF"/>
<path d="M74.641,60.513C80.017,60.513 83.211,56.309 83.211,49.189C83.211,46.509 82.698,44.253 81.717,42.51C80.296,39.8 77.849,38.335 74.759,38.335C70.159,38.335 66.907,41.426 66.907,45.762C66.907,49.834 69.837,52.793 73.865,52.793C76.341,52.793 78.347,51.636 79.344,49.629L79.387,49.629C79.387,49.629 79.446,49.629 79.461,49.629C79.49,49.629 79.593,49.629 79.593,49.629C79.593,54.463 77.761,57.349 74.671,57.349C72.854,57.349 71.448,56.353 70.965,54.756L67.2,54.756C67.83,58.228 70.774,60.513 74.641,60.513ZM74.773,49.79C72.342,49.79 70.613,48.062 70.613,45.645C70.613,43.286 72.429,41.484 74.788,41.484C77.146,41.484 78.963,43.315 78.963,45.703C78.963,48.062 77.19,49.79 74.773,49.79Z" fill="#FFFFFF"/>
<path d="M89.393,60.308C90.785,60.308 91.737,59.312 91.737,57.993C91.737,56.66 90.785,55.679 89.393,55.679C88.016,55.679 87.049,56.66 87.049,57.993C87.049,59.312 88.016,60.308 89.393,60.308ZM89.393,49.321C90.785,49.321 91.737,48.34 91.737,47.021C91.737,45.688 90.785,44.707 89.393,44.707C88.016,44.707 87.049,45.688 87.049,47.021C87.049,48.34 88.016,49.321 89.393,49.321Z" fill="#FFFFFF"/>
<path d="M105.448,60L109.066,60L109.066,56.06L111.923,56.06L111.923,52.866L109.066,52.866L109.066,38.862L103.734,38.862C99.999,44.487 97.025,49.189 95.121,52.69L95.121,56.06L105.448,56.06L105.448,60ZM98.622,52.734C101.083,48.398 103.28,44.927 105.302,41.938L105.507,41.938L105.507,52.954L98.622,52.954L98.622,52.734Z" fill="#FFFFFF"/>
<path d="M119.98,60L123.759,60L123.759,38.862L119.995,38.862L114.472,42.73L114.472,46.362L119.731,42.671L119.98,42.671L119.98,60Z" fill="#FFFFFF"/>
<line x1="572" y1="1429.5" x2="668" y2="1429.5" stroke="#9C98A6" stroke-width="1.5" stroke-miterlimit="3.999327" stroke-linecap="round" stroke-linejoin="round"/>
<path d="M674.062,1424.06C674.647,1423.474 674.647,1422.524 674.062,1421.938C673.476,1421.353 672.526,1421.353 671.94,1421.938L674.062,1424.06ZM662.999,1433.001L661.938,1434.062C662.22,1434.343 662.601,1434.501 662.999,1434.501C663.397,1434.501 663.778,1434.343 664.06,1434.062L662.999,1433.001ZM654.058,1421.938C653.472,1421.353 652.522,1421.353 651.936,1421.938C651.351,1422.524 651.351,1423.474 651.936,1424.06L654.058,1421.938ZM671.94,1421.938L661.938,1431.94L664.06,1434.062L674.062,1424.06L671.94,1421.938ZM664.06,1431.94L654.058,1421.938L651.936,1424.06L661.938,1434.062L664.06,1431.94Z" transform="rotate(-180 662.999 1428)" fill="#9C98A6"/>
</svg>
