<svg width="102" height="180" viewBox="0 0 102 180" fill="none" xmlns="http://www.w3.org/2000/svg" xmlns:xlink="http://www.w3.org/1999/xlink">
<path d="M6,6L6,0C2.686,0 0,2.686 0,6L6,6ZM96,43.333L102,43.333L96,43.333ZM90,174C90,177.314 92.686,180 96,180C99.314,180 102,177.314 102,174L90,174ZM69,146L69,140L69,146ZM6,146L0,146C0,149.314 2.686,152 6,152L6,146ZM6,12L60,12L60,0L6,0L6,12ZM60,12C67.885,12 75.492,15.246 81.137,21.099L89.775,12.77C81.917,4.62 71.211,0 60,0L60,12ZM81.137,21.099C86.788,26.96 90,34.954 90,43.333L102,43.333C102,31.91 97.626,20.912 89.775,12.77L81.137,21.099ZM90,43.333L90,174L102,174L102,43.333L90,43.333ZM102,174C102,165.052 98.574,156.428 92.411,150.036L83.773,158.366C87.736,162.476 90,168.096 90,174L102,174ZM92.411,150.036C86.24,143.637 77.824,140 69,140L69,152C74.498,152 79.816,154.263 83.773,158.366L92.411,150.036ZM69,140L6,140L6,152L69,152L69,140ZM12,146L12,6L0,6L0,146L12,146Z" fill="#FFFFFF"/>
</svg>
