<svg width="40" height="36" viewBox="0 0 40 36" fill="none" xmlns="http://www.w3.org/2000/svg" xmlns:xlink="http://www.w3.org/1999/xlink">
<path d="M20,5.794L18.864,6.774C19.149,7.104 19.564,7.294 20,7.294C20.436,7.294 20.851,7.104 21.136,6.774L20,5.794ZM27.4,3.874C32.692,3.874 36.5,8.925 36.5,13.894L39.5,13.894C39.5,7.743 34.788,0.874 27.4,0.874L27.4,3.874ZM36.5,13.894C36.5,16.311 35.55,18.707 33.992,21.002C32.435,23.294 30.327,25.4 28.16,27.204C26,29.002 23.823,30.465 22.165,31.477C21.338,31.983 20.646,32.373 20.16,32.632C19.915,32.763 19.729,32.856 19.608,32.914C19.546,32.944 19.513,32.958 19.505,32.962C19.498,32.964 19.517,32.956 19.551,32.945C19.567,32.94 19.605,32.927 19.655,32.915C19.683,32.908 19.819,32.874 20,32.874L20,35.874C20.185,35.874 20.329,35.839 20.366,35.83C20.426,35.815 20.475,35.799 20.505,35.789C20.565,35.769 20.618,35.748 20.655,35.733C20.732,35.701 20.817,35.662 20.902,35.621C21.075,35.538 21.302,35.423 21.571,35.279C22.112,34.991 22.855,34.572 23.73,34.037C25.477,32.969 27.78,31.423 30.08,29.509C32.373,27.6 34.705,25.29 36.473,22.687C38.24,20.086 39.5,17.107 39.5,13.894L36.5,13.894ZM20,32.874C20.181,32.874 20.317,32.908 20.345,32.915C20.395,32.927 20.433,32.94 20.449,32.945C20.483,32.956 20.502,32.964 20.495,32.962C20.487,32.958 20.454,32.944 20.392,32.914C20.271,32.856 20.085,32.763 19.84,32.632C19.354,32.373 18.662,31.983 17.835,31.477C16.177,30.465 14,29.002 11.84,27.204C9.673,25.4 7.565,23.294 6.008,21.002C4.45,18.707 3.5,16.311 3.5,13.894L0.5,13.894C0.5,17.107 1.76,20.086 3.527,22.687C5.295,25.29 7.627,27.6 9.92,29.509C12.22,31.423 14.523,32.969 16.27,34.037C17.145,34.572 17.888,34.991 18.429,35.279C18.698,35.423 18.925,35.538 19.098,35.621C19.183,35.662 19.268,35.701 19.345,35.733C19.382,35.748 19.435,35.769 19.495,35.789C19.525,35.799 19.574,35.815 19.634,35.83C19.671,35.839 19.815,35.874 20,35.874L20,32.874ZM3.5,13.894C3.5,8.925 7.308,3.874 12.6,3.874L12.6,0.874C5.212,0.874 0.5,7.743 0.5,13.894L3.5,13.894ZM12.6,3.874C15.676,3.874 17.673,5.393 18.864,6.774L21.136,4.814C19.566,2.995 16.804,0.874 12.6,0.874L12.6,3.874ZM21.136,6.774C22.327,5.393 24.324,3.874 27.4,3.874L27.4,0.874C23.196,0.874 20.434,2.995 18.864,4.814L21.136,6.774Z" fill="#FFFFFF"/>
</svg>
