<svg width="8" height="18" viewBox="0 0 8 18" fill="none" xmlns="http://www.w3.org/2000/svg" xmlns:xlink="http://www.w3.org/1999/xlink">
<path d="M1.907,7.879L0.917,7.879C0.659,7.879 0.521,7.736 0.521,7.429L0.521,5.513C0.521,5.229 0.659,5.062 0.917,5.062L1.906,5.062L1.906,3.526C1.907,1.183 2.936,0 4.975,0L7.41,0C7.687,0 7.806,0.166 7.806,0.449L7.806,2.366C7.806,2.674 7.687,2.815 7.41,2.815L6.124,2.815C5.035,2.815 4.817,3.099 4.817,4.164L4.817,5.062L7.41,5.062C7.687,5.062 7.806,5.229 7.806,5.513L7.806,7.429C7.806,7.736 7.687,7.879 7.41,7.879L4.817,7.879L4.817,17.058C4.817,17.342 4.679,17.507 4.402,17.507L2.303,17.507C2.026,17.507 1.907,17.342 1.907,17.058L1.907,7.879Z" fill="#FFFFFF"/>
</svg>
