<svg width="102" height="180" viewBox="0 0 102 180" fill="none" xmlns="http://www.w3.org/2000/svg" xmlns:xlink="http://www.w3.org/1999/xlink">
<path d="M96,6L102,6C102,2.686 99.314,0 96,0L96,6ZM42,6L42,0L42,6ZM6,43.333L0,43.333L6,43.333ZM0,174C0,177.314 2.686,180 6,180C9.314,180 12,177.314 12,174L0,174ZM33,146L33,140L33,146ZM96,146L96,152C99.314,152 102,149.314 102,146L96,146ZM96,0L42,0L42,12L96,12L96,0ZM42,0C30.789,0 20.083,4.62 12.225,12.77L20.863,21.099C26.508,15.246 34.115,12 42,12L42,0ZM12.225,12.77C4.374,20.912 0,31.91 0,43.333L12,43.333C12,34.954 15.212,26.96 20.863,21.099L12.225,12.77ZM0,43.333L0,174L12,174L12,43.333L0,43.333ZM12,174C12,168.096 14.264,162.476 18.227,158.366L9.589,150.036C3.426,156.428 0,165.052 0,174L12,174ZM18.227,158.366C22.184,154.263 27.502,152 33,152L33,140C24.176,140 15.76,143.637 9.589,150.036L18.227,158.366ZM33,152L96,152L96,140L33,140L33,152ZM102,146L102,6L90,6L90,146L102,146Z" fill="#FFFFFF"/>
</svg>
