<svg width="160" height="160" viewBox="0 0 160 160" fill="none" xmlns="http://www.w3.org/2000/svg" xmlns:xlink="http://www.w3.org/1999/xlink">
<path d="M122.836,0L35.122,0C11.78,0 0,11.428 0,34.063L0,155.206C0,158.173 1.58,160 4.984,160L31.499,160C34.672,160 36.715,158.173 36.715,155.206L36.715,150.607C36.715,139.386 41.403,133.271 53.055,132.092L122.836,132.092C148.438,132.092 160,120.897 160,96.435L160,35.656C160,11.194 148.438,0 122.836,0ZM123.324,86.148C123.324,99.415 120.344,102.149 104.697,102.149L67.533,102.149C51.899,102.149 41.917,107.41 36.702,117.697L36.702,42.977C36.702,32.689 39.194,29.943 51.655,29.943L104.697,29.943C120.344,29.943 123.324,32.689 123.324,45.944L123.324,86.148Z" fill="#FFFFFF"/>
</svg>
