<svg width="40" height="36" viewBox="0 0 40 36" fill="none" xmlns="http://www.w3.org/2000/svg" xmlns:xlink="http://www.w3.org/1999/xlink">
<path d="M20,5.42L18.864,6.4C19.149,6.73 19.564,6.92 20,6.92C20.436,6.92 20.851,6.73 21.136,6.4L20,5.42ZM27.4,3.5C32.692,3.5 36.5,8.551 36.5,13.52L39.5,13.52C39.5,7.369 34.788,0.5 27.4,0.5L27.4,3.5ZM36.5,13.52C36.5,15.937 35.55,18.333 33.992,20.628C32.435,22.92 30.327,25.026 28.16,26.83C26,28.628 23.823,30.091 22.165,31.103C21.338,31.609 20.646,31.999 20.16,32.258C19.915,32.389 19.729,32.482 19.608,32.54C19.546,32.57 19.513,32.584 19.505,32.588C19.498,32.59 19.517,32.582 19.551,32.571C19.567,32.566 19.605,32.553 19.655,32.541C19.683,32.534 19.82,32.5 20,32.5L20,35.5C20.186,35.5 20.329,35.465 20.366,35.456C20.426,35.441 20.475,35.425 20.505,35.415C20.565,35.395 20.618,35.374 20.655,35.359C20.732,35.327 20.817,35.288 20.902,35.247C21.075,35.164 21.302,35.049 21.571,34.905C22.112,34.617 22.855,34.198 23.73,33.663C25.477,32.595 27.78,31.049 30.08,29.135C32.373,27.226 34.705,24.916 36.473,22.313C38.24,19.712 39.5,16.733 39.5,13.52L36.5,13.52ZM20,32.5C20.18,32.5 20.317,32.534 20.345,32.541C20.395,32.553 20.433,32.566 20.449,32.571C20.483,32.582 20.502,32.59 20.495,32.588C20.487,32.584 20.454,32.57 20.392,32.54C20.271,32.482 20.085,32.389 19.84,32.258C19.354,31.999 18.662,31.609 17.835,31.103C16.177,30.091 14,28.628 11.84,26.83C9.673,25.026 7.565,22.92 6.008,20.628C4.45,18.333 3.5,15.937 3.5,13.52L0.5,13.52C0.5,16.733 1.76,19.712 3.527,22.313C5.295,24.916 7.627,27.226 9.92,29.135C12.22,31.049 14.523,32.595 16.27,33.663C17.145,34.198 17.888,34.617 18.429,34.905C18.698,35.049 18.925,35.164 19.098,35.247C19.183,35.288 19.268,35.327 19.345,35.359C19.382,35.374 19.435,35.395 19.495,35.415C19.525,35.425 19.574,35.441 19.634,35.456C19.671,35.465 19.814,35.5 20,35.5L20,32.5ZM3.5,13.52C3.5,8.551 7.308,3.5 12.6,3.5L12.6,0.5C5.212,0.5 0.5,7.369 0.5,13.52L3.5,13.52ZM12.6,3.5C15.676,3.5 17.674,5.019 18.864,6.4L21.136,4.44C19.566,2.621 16.804,0.5 12.6,0.5L12.6,3.5ZM21.136,6.4C22.327,5.019 24.324,3.5 27.4,3.5L27.4,0.5C23.196,0.5 20.434,2.621 18.864,4.44L21.136,6.4Z" fill="#C1BCCC"/>
</svg>
