<svg width="12" height="12" viewBox="0 0 12 12" fill="none" xmlns="http://www.w3.org/2000/svg" xmlns:xlink="http://www.w3.org/1999/xlink">
<path d="M10.978,8.124C10.978,10.467 10.107,11.507 8.029,11.507L2.882,11.507C0.823,11.507 -0.068,10.467 -0.068,8.124L-0.068,2.449C-0.068,0.107 0.823,-0.935 2.882,-0.935L8.029,-0.935C10.107,-0.935 10.978,0.107 10.978,2.449L10.978,8.124ZM8.068,3.346C8.068,2.115 7.871,1.879 6.643,1.879L4.287,1.879C3.04,1.879 2.842,2.115 2.842,3.346L2.842,7.225C2.842,8.455 3.04,8.692 4.287,8.692L6.643,8.692C7.871,8.692 8.068,8.455 8.068,7.225L8.068,3.346Z" fill="#FFFFFF"/>
</svg>
