<svg width="36" height="62" viewBox="0 0 36 62" fill="none" xmlns="http://www.w3.org/2000/svg" xmlns:xlink="http://www.w3.org/1999/xlink">
<path d="M2,2L2,-1C0.343,-1 -1,0.343 -1,2L2,2ZM32,14.444L35,14.444L32,14.444ZM29,58C29,59.657 30.343,61 32,61C33.657,61 35,59.657 35,58L29,58ZM23,48.667L23,45.667L23,48.667ZM2,48.667L-1,48.667C-1,50.324 0.343,51.667 2,51.667L2,48.667ZM2,5L20,5L20,-1L2,-1L2,5ZM20,5C22.351,5 24.629,5.968 26.326,7.727L30.645,3.562C27.841,0.655 24.014,-1 20,-1L20,5ZM26.326,7.727C28.026,9.491 29,11.905 29,14.444L35,14.444C35,10.383 33.445,6.467 30.645,3.562L26.326,7.727ZM29,14.444L29,58L35,58L35,14.444L29,14.444ZM35,58C35,54.763 33.761,51.639 31.523,49.318L27.204,53.483C28.342,54.663 29,56.286 29,58L35,58ZM31.523,49.318C29.282,46.994 26.219,45.667 23,45.667L23,51.667C24.555,51.667 26.07,52.306 27.204,53.483L31.523,49.318ZM23,45.667L2,45.667L2,51.667L23,51.667L23,45.667ZM5,48.667L5,2L-1,2L-1,48.667L5,48.667Z" fill="#FFFFFF"/>
</svg>
