<svg width="40" height="38" viewBox="0 0 40 38" fill="none" xmlns="http://www.w3.org/2000/svg" xmlns:xlink="http://www.w3.org/1999/xlink">
<path d="M17.333,33.024C17.333,34.128 18.229,35.024 19.333,35.024C20.438,35.024 21.333,34.128 21.333,33.024L17.333,33.024ZM3.062,33.606C2.403,34.492 2.587,35.745 3.473,36.404C4.359,37.064 5.612,36.88 6.271,35.994L3.062,33.606ZM33.823,36.111C34.547,36.945 35.81,37.034 36.644,36.31C37.479,35.586 37.568,34.323 36.844,33.489L33.823,36.111ZM17.333,24.048L17.333,33.024L21.333,33.024L21.333,24.048L17.333,24.048ZM12.667,26.048L19.333,26.048L19.333,22.048L12.667,22.048L12.667,26.048ZM11.062,22.854L3.062,33.606L6.271,35.994L14.271,25.242L11.062,22.854ZM19.333,26.048L26,26.048L26,22.048L19.333,22.048L19.333,26.048ZM24.49,25.359L33.823,36.111L36.844,33.489L27.51,22.737L24.49,25.359ZM12.667,22.048L10,22.048L10,26.048L12.667,26.048L12.667,22.048ZM4,16.048L4,9.2L0,9.2L0,16.048L4,16.048ZM10,3.2L30,3.2L30,-0.8L10,-0.8L10,3.2ZM36,9.2L36,16.048L40,16.048L40,9.2L36,9.2ZM30,22.048L26,22.048L26,26.048L30,26.048L30,22.048ZM36,16.048C36,19.361 33.314,22.048 30,22.048L30,26.048C35.523,26.048 40,21.571 40,16.048L36,16.048ZM30,3.2C33.314,3.2 36,5.886 36,9.2L40,9.2C40,3.677 35.523,-0.8 30,-0.8L30,3.2ZM4,9.2C4,5.886 6.686,3.2 10,3.2L10,-0.8C4.477,-0.8 0,3.677 0,9.2L4,9.2ZM10,22.048C6.686,22.048 4,19.361 4,16.048L0,16.048C0,21.571 4.477,26.048 10,26.048L10,22.048Z" fill="#C1BCCC"/>
</svg>
