<svg width="8" height="18" viewBox="0 0 8 18" fill="none" xmlns="http://www.w3.org/2000/svg" xmlns:xlink="http://www.w3.org/1999/xlink">
<path d="M1.984,7.879L0.996,7.879C0.739,7.879 0.601,7.736 0.601,7.429L0.601,5.513C0.601,5.229 0.739,5.062 0.996,5.062L1.986,5.062L1.986,3.526C1.984,1.183 3.015,0 5.052,0L7.487,0C7.764,0 7.883,0.166 7.883,0.449L7.883,2.366C7.883,2.674 7.764,2.815 7.487,2.815L6.2,2.815C5.112,2.815 4.894,3.099 4.894,4.164L4.894,5.062L7.487,5.062C7.764,5.062 7.883,5.229 7.883,5.513L7.883,7.429C7.883,7.736 7.764,7.879 7.487,7.879L4.894,7.879L4.894,17.058C4.894,17.342 4.755,17.507 4.478,17.507L2.379,17.507C2.102,17.507 1.984,17.342 1.984,17.058L1.984,7.879Z" fill="#FFFFFF"/>
</svg>
