<svg width="8" height="12" viewBox="0 0 8 12" fill="none" xmlns="http://www.w3.org/2000/svg" xmlns:xlink="http://www.w3.org/1999/xlink">
<path d="M5.32,1.879C3.558,1.879 2.805,2.943 2.805,4.742L2.805,11.058C2.805,11.342 2.686,11.507 2.409,11.507L0.311,11.507C0.034,11.507 -0.104,11.342 -0.104,11.058L-0.104,-0.487C-0.104,-0.771 0.034,-0.938 0.311,-0.938L2.072,-0.938C2.33,-0.938 2.468,-0.771 2.468,-0.487L2.468,1.376C2.805,-0.161 3.776,-0.943 5.498,-0.943L6.211,-0.943C6.468,-0.943 6.606,-0.777 6.606,-0.492L6.606,1.429C6.606,1.737 6.468,1.879 6.211,1.879L5.32,1.879Z" fill="#FFFFFF"/>
</svg>
