<svg width="10" height="18" viewBox="0 0 10 18" fill="none" xmlns="http://www.w3.org/2000/svg" xmlns:xlink="http://www.w3.org/1999/xlink">
<path d="M6.731,16.334L2.415,16.334C0.476,16.334 -0.355,15.435 -0.355,13.21L-0.355,12.974C-0.361,12.911 -0.355,12.847 -0.337,12.786C-0.319,12.726 -0.29,12.672 -0.252,12.627C-0.214,12.582 -0.168,12.548 -0.118,12.527C-0.067,12.506 -0.013,12.499 0.04,12.506L2.06,12.506C2.337,12.506 2.475,12.673 2.475,12.98L2.475,13.098C2.475,13.571 2.694,13.76 3.129,13.76L5.623,13.76C6.81,13.76 7.108,13.406 7.108,12.199L7.108,8.467C6.652,9.532 5.782,10.076 4.415,10.076L2.395,10.076C0.336,10.076 -0.575,9.036 -0.575,6.693L-0.575,-0.487C-0.578,-0.549 -0.569,-0.611 -0.55,-0.669C-0.531,-0.726 -0.501,-0.778 -0.464,-0.821C-0.426,-0.864 -0.381,-0.896 -0.332,-0.917C-0.283,-0.937 -0.231,-0.944 -0.179,-0.937L1.94,-0.937C2.196,-0.937 2.336,-0.771 2.336,-0.487L2.336,5.801C2.336,7.031 2.553,7.268 3.781,7.268L5.286,7.268C6.592,7.268 7.107,6.629 7.107,5.328L7.107,-0.487C7.107,-0.771 7.245,-0.937 7.503,-0.937L9.622,-0.937C9.673,-0.943 9.724,-0.936 9.772,-0.915C9.82,-0.895 9.864,-0.861 9.9,-0.818C9.935,-0.775 9.963,-0.723 9.98,-0.666C9.997,-0.609 10.003,-0.547 9.998,-0.487L9.998,12.572C9.997,15.054 8.889,16.334 6.731,16.334Z" fill="#FFFFFF"/>
</svg>
