<svg width="14" height="18" viewBox="0 0 14 18" fill="none" xmlns="http://www.w3.org/2000/svg" xmlns:xlink="http://www.w3.org/1999/xlink">
<path d="M10.729,0.947L3.068,0.947C1.029,0.947 0,2.13 0,4.472L0,17.011C0,17.318 0.138,17.507 0.435,17.507L2.751,17.507C3.029,17.507 3.207,17.318 3.207,17.011L3.207,16.535C3.207,15.374 3.617,14.741 4.634,14.619L10.729,14.619C12.966,14.619 13.976,13.46 13.976,10.928L13.976,4.637C13.976,2.105 12.966,0.947 10.729,0.947ZM10.772,9.863C10.772,11.237 10.512,11.519 9.145,11.519L5.899,11.519C4.533,11.519 3.661,12.064 3.206,13.129L3.206,5.395C3.206,4.33 3.423,4.046 4.512,4.046L9.145,4.046C10.512,4.046 10.772,4.33 10.772,5.702L10.772,9.863Z" fill="#FFFFFF"/>
</svg>
