<svg width="20" height="12" viewBox="0 0 20 12" fill="none" xmlns="http://www.w3.org/2000/svg" xmlns:xlink="http://www.w3.org/1999/xlink">
<path d="M3.061,0.939C2.475,0.354 1.525,0.354 0.939,0.939C0.354,1.525 0.354,2.475 0.939,3.061L3.061,0.939ZM10,10L8.939,11.061C9.525,11.646 10.475,11.646 11.061,11.061L10,10ZM19.061,3.061C19.646,2.475 19.646,1.525 19.061,0.939C18.475,0.354 17.525,0.354 16.939,0.939L19.061,3.061ZM0.939,3.061L8.939,11.061L11.061,8.939L3.061,0.939L0.939,3.061ZM11.061,11.061L19.061,3.061L16.939,0.939L8.939,8.939L11.061,11.061Z" transform="rotate(-360 10 6)" fill="#A380F6"/>
</svg>
