<svg width="36" height="62" viewBox="0 0 36 62" fill="none" xmlns="http://www.w3.org/2000/svg" xmlns:xlink="http://www.w3.org/1999/xlink">
<path d="M32,2L35,2C35,0.343 33.657,-1 32,-1L32,2ZM14,2L14,-1L14,2ZM2,14.444L-1,14.444L2,14.444ZM-1,58C-1,59.657 0.343,61 2,61C3.657,61 5,59.657 5,58L-1,58ZM11,48.667L11,45.667L11,48.667ZM32,48.667L32,51.667C33.657,51.667 35,50.324 35,48.667L32,48.667ZM32,-1L14,-1L14,5L32,5L32,-1ZM14,-1C9.986,-1 6.159,0.655 3.355,3.562L7.674,7.727C9.371,5.968 11.649,5 14,5L14,-1ZM3.355,3.562C0.555,6.467 -1,10.383 -1,14.444L5,14.444C5,11.905 5.974,9.491 7.674,7.727L3.355,3.562ZM-1,14.444L-1,58L5,58L5,14.444L-1,14.444ZM5,58C5,56.286 5.658,54.663 6.796,53.483L2.477,49.318C0.239,51.639 -1,54.763 -1,58L5,58ZM6.796,53.483C7.93,52.306 9.445,51.667 11,51.667L11,45.667C7.781,45.667 4.718,46.994 2.477,49.318L6.796,53.483ZM11,51.667L32,51.667L32,45.667L11,45.667L11,51.667ZM35,48.667L35,2L29,2L29,48.667L35,48.667Z" fill="#FFFFFF"/>
</svg>
