<svg width="40" height="64" viewBox="0 0 40 64" fill="none" xmlns="http://www.w3.org/2000/svg" xmlns:xlink="http://www.w3.org/1999/xlink">
<line x1="38" y1="30.5" x2="6" y2="30.5" stroke="#D4C2FF" stroke-width="1.5" stroke-miterlimit="3.999327" stroke-linecap="round" stroke-linejoin="round"/>
<path d="M22.064,28.06C22.649,27.474 22.649,26.524 22.064,25.938C21.478,25.353 20.528,25.353 19.942,25.938L22.064,28.06ZM11.001,37.001L9.94,38.062C10.222,38.343 10.603,38.501 11.001,38.501C11.399,38.501 11.78,38.343 12.062,38.062L11.001,37.001ZM2.06,25.938C1.474,25.353 0.524,25.353 -0.062,25.938C-0.647,26.524 -0.647,27.474 -0.062,28.06L2.06,25.938ZM19.942,25.938L9.94,35.94L12.062,38.062L22.064,28.06L19.942,25.938ZM12.062,35.94L2.06,25.938L-0.062,28.06L9.94,38.062L12.062,35.94Z" transform="rotate(180 11.001 32)" fill="#D4C2FF"/>
</svg>
