<svg width="40" height="42" viewBox="0 0 40 42" fill="none" xmlns="http://www.w3.org/2000/svg" xmlns:xlink="http://www.w3.org/1999/xlink">
<path d="M20.005,0.374L19.995,0.374C8.967,0.374 0,9.344 0,20.374C0,24.749 1.41,28.804 3.807,32.096L1.315,39.527L9.003,37.069C12.165,39.164 15.938,40.374 20.005,40.374C31.032,40.374 40,31.402 40,20.374C40,9.347 31.032,0.374 20.005,0.374Z" fill="#4CAF50"/>
<path d="M31.642,28.616C31.16,29.979 29.245,31.109 27.717,31.439C26.672,31.661 25.307,31.839 20.712,29.934C14.835,27.499 11.05,21.526 10.755,21.139C10.472,20.751 8.38,17.976 8.38,15.106C8.38,12.236 9.837,10.839 10.425,10.239C10.907,9.746 11.705,9.521 12.47,9.521C12.717,9.521 12.94,9.534 13.14,9.544C13.727,9.569 14.022,9.604 14.41,10.531C14.892,11.694 16.067,14.564 16.207,14.859C16.35,15.154 16.492,15.554 16.292,15.941C16.105,16.341 15.94,16.519 15.645,16.859C15.35,17.199 15.07,17.459 14.775,17.824C14.505,18.141 14.2,18.481 14.54,19.069C14.88,19.644 16.055,21.561 17.785,23.101C20.017,25.089 21.827,25.724 22.475,25.994C22.957,26.194 23.532,26.146 23.885,25.771C24.332,25.289 24.885,24.489 25.447,23.701C25.847,23.136 26.352,23.066 26.882,23.266C27.422,23.454 30.28,24.866 30.867,25.159C31.455,25.454 31.842,25.594 31.985,25.841C32.125,26.089 32.125,27.251 31.642,28.616Z" fill="#FAFAFA"/>
</svg>
