<svg width="40" height="40" viewBox="0 0 40 40" fill="none" xmlns="http://www.w3.org/2000/svg" xmlns:xlink="http://www.w3.org/1999/xlink">
<path d="M20.005,0L19.995,0C8.968,0 0,8.97 0,20C0,24.375 1.41,28.43 3.807,31.722L1.315,39.153L9.003,36.695C12.165,38.79 15.938,40 20.005,40C31.032,40 40,31.028 40,20C40,8.972 31.032,0 20.005,0Z" fill="#4CAF50"/>
<path d="M31.642,28.242C31.16,29.605 29.245,30.735 27.717,31.065C26.672,31.287 25.307,31.465 20.712,29.56C14.835,27.125 11.05,21.152 10.755,20.765C10.472,20.377 8.38,17.602 8.38,14.732C8.38,11.862 9.837,10.465 10.425,9.865C10.907,9.372 11.705,9.147 12.47,9.147C12.717,9.147 12.94,9.16 13.14,9.17C13.727,9.195 14.022,9.23 14.41,10.157C14.892,11.32 16.067,14.19 16.207,14.485C16.35,14.78 16.492,15.18 16.292,15.567C16.105,15.967 15.94,16.145 15.645,16.485C15.35,16.825 15.07,17.085 14.775,17.45C14.505,17.767 14.2,18.107 14.54,18.695C14.88,19.27 16.055,21.187 17.785,22.727C20.017,24.715 21.827,25.35 22.475,25.62C22.957,25.82 23.532,25.772 23.885,25.397C24.332,24.915 24.885,24.115 25.447,23.327C25.847,22.762 26.352,22.692 26.882,22.892C27.422,23.08 30.28,24.492 30.867,24.785C31.455,25.08 31.842,25.22 31.985,25.467C32.125,25.715 32.125,26.877 31.642,28.242Z" fill="#FAFAFA"/>
</svg>
